<svg width="18" height="18" viewBox="0 0 18 18" fill="none" xmlns="http://www.w3.org/2000/svg">
<path opacity="0.7" d="M9 11C9.82843 11 10.5 10.3284 10.5 9.5C10.5 8.67157 9.82843 8 9 8C8.17157 8 7.5 8.67157 7.5 9.5C7.5 10.3284 8.17157 11 9 11Z" stroke="#140533" stroke-width="1.5" stroke-linecap="round" stroke-linejoin="round"/>
<path d="M14.0455 11.5455C13.9547 11.7511 13.9276 11.9792 13.9677 12.2004C14.0078 12.4216 14.1133 12.6257 14.2705 12.7864L14.3114 12.8273C14.4382 12.9539 14.5387 13.1043 14.6074 13.2699C14.676 13.4354 14.7113 13.6128 14.7113 13.792C14.7113 13.9712 14.676 14.1487 14.6074 14.3142C14.5387 14.4798 14.4382 14.6302 14.3114 14.7568C14.1847 14.8836 14.0343 14.9842 13.8688 15.0528C13.7032 15.1214 13.5258 15.1568 13.3466 15.1568C13.1674 15.1568 12.9899 15.1214 12.8244 15.0528C12.6589 14.9842 12.5085 14.8836 12.3818 14.7568L12.3409 14.7159C12.1802 14.5587 11.9761 14.4533 11.7549 14.4132C11.5338 14.3731 11.3056 14.4001 11.1 14.4909C10.8983 14.5773 10.7264 14.7208 10.6052 14.9038C10.4841 15.0867 10.4191 15.3011 10.4182 15.5205V15.6364C10.4182 15.998 10.2745 16.3449 10.0188 16.6006C9.76305 16.8563 9.4162 17 9.05455 17C8.69289 17 8.34604 16.8563 8.09031 16.6006C7.83458 16.3449 7.69091 15.998 7.69091 15.6364V15.575C7.68563 15.3493 7.61258 15.1305 7.48126 14.9468C7.34993 14.7632 7.16641 14.6234 6.95455 14.5455C6.7489 14.4547 6.52078 14.4276 6.2996 14.4677C6.07842 14.5078 5.87433 14.6133 5.71364 14.7705L5.67273 14.8114C5.54608 14.9382 5.39569 15.0387 5.23015 15.1074C5.0646 15.176 4.88716 15.2113 4.70795 15.2113C4.52875 15.2113 4.35131 15.176 4.18576 15.1074C4.02022 15.0387 3.86983 14.9382 3.74318 14.8114C3.6164 14.6847 3.51582 14.5343 3.44719 14.3688C3.37857 14.2032 3.34325 14.0258 3.34325 13.8466C3.34325 13.6674 3.37857 13.4899 3.44719 13.3244C3.51582 13.1589 3.6164 13.0085 3.74318 12.8818L3.78409 12.8409C3.94128 12.6802 4.04672 12.4761 4.08682 12.2549C4.12693 12.0338 4.09985 11.8056 4.00909 11.6C3.92266 11.3983 3.77915 11.2264 3.59623 11.1052C3.4133 10.9841 3.19895 10.9191 2.97955 10.9182H2.86364C2.50198 10.9182 2.15513 10.7745 1.8994 10.5188C1.64367 10.2631 1.5 9.9162 1.5 9.55455C1.5 9.19289 1.64367 8.84604 1.8994 8.59031C2.15513 8.33458 2.50198 8.19091 2.86364 8.19091H2.925C3.15068 8.18563 3.36955 8.11258 3.55316 7.98126C3.73677 7.84993 3.87662 7.66641 3.95455 7.45455C4.04531 7.2489 4.07238 7.02078 4.03228 6.7996C3.99217 6.57842 3.88673 6.37433 3.72955 6.21364L3.68864 6.17273C3.56185 6.04608 3.46127 5.89569 3.39265 5.73015C3.32402 5.5646 3.2887 5.38716 3.2887 5.20795C3.2887 5.02875 3.32402 4.85131 3.39265 4.68576C3.46127 4.52022 3.56185 4.36983 3.68864 4.24318C3.81528 4.1164 3.96567 4.01582 4.13122 3.94719C4.29676 3.87857 4.47421 3.84325 4.65341 3.84325C4.83261 3.84325 5.01006 3.87857 5.1756 3.94719C5.34114 4.01582 5.49154 4.1164 5.61818 4.24318L5.65909 4.28409C5.81978 4.44128 6.02387 4.54672 6.24505 4.58682C6.46623 4.62693 6.69435 4.59985 6.9 4.50909H6.95455C7.15621 4.42266 7.32819 4.27915 7.44934 4.09623C7.57048 3.9133 7.63549 3.69895 7.63636 3.47955V3.36364C7.63636 3.00198 7.78003 2.65513 8.03576 2.3994C8.2915 2.14367 8.63834 2 9 2C9.36166 2 9.7085 2.14367 9.96424 2.3994C10.22 2.65513 10.3636 3.00198 10.3636 3.36364V3.425C10.3645 3.6444 10.4295 3.85876 10.5507 4.04168C10.6718 4.22461 10.8438 4.36812 11.0455 4.45455C11.2511 4.54531 11.4792 4.57238 11.7004 4.53228C11.9216 4.49217 12.1257 4.38673 12.2864 4.22955L12.3273 4.18864C12.4539 4.06185 12.6043 3.96127 12.7699 3.89265C12.9354 3.82402 13.1128 3.7887 13.292 3.7887C13.4712 3.7887 13.6487 3.82402 13.8142 3.89265C13.9798 3.96127 14.1302 4.06185 14.2568 4.18864C14.3836 4.31528 14.4842 4.46567 14.5528 4.63122C14.6214 4.79676 14.6568 4.97421 14.6568 5.15341C14.6568 5.33261 14.6214 5.51006 14.5528 5.6756C14.4842 5.84114 14.3836 5.99154 14.2568 6.11818L14.2159 6.15909C14.0587 6.31978 13.9533 6.52387 13.9132 6.74505C13.8731 6.96623 13.9001 7.19435 13.9909 7.4V7.45455C14.0773 7.65621 14.2208 7.82819 14.4038 7.94934C14.5867 8.07048 14.8011 8.13549 15.0205 8.13636H15.1364C15.498 8.13636 15.8449 8.28003 16.1006 8.53576C16.3563 8.7915 16.5 9.13834 16.5 9.5C16.5 9.86166 16.3563 10.2085 16.1006 10.4642C15.8449 10.72 15.498 10.8636 15.1364 10.8636H15.075C14.8556 10.8645 14.6412 10.9295 14.4583 11.0507C14.2754 11.1718 14.1319 11.3438 14.0455 11.5455V11.5455Z" stroke="#140533" stroke-width="1.5" stroke-linecap="round" stroke-linejoin="round"/>
</svg>
