<svg width="146" height="29" viewBox="0 0 146 29" fill="none" xmlns="http://www.w3.org/2000/svg">
<path d="M4.57219 9.20093V23H0.427807V9.20093H4.57219ZM5 5.42182C5 5.75005 4.93316 6.06055 4.79947 6.35329C4.66578 6.63717 4.48307 6.89 4.25134 7.11178C4.01961 7.32468 3.74777 7.49767 3.43583 7.63074C3.1328 7.75493 2.80749 7.81703 2.45989 7.81703C2.12121 7.81703 1.80481 7.75493 1.5107 7.63074C1.21658 7.49767 0.953654 7.32468 0.721925 7.11178C0.499109 6.89 0.320856 6.63717 0.187166 6.35329C0.0623886 6.06055 0 5.75005 0 5.42182C0 5.08472 0.0623886 4.76979 0.187166 4.47705C0.320856 4.1843 0.499109 3.92703 0.721925 3.70526C0.953654 3.48348 1.21658 3.31049 1.5107 3.18629C1.80481 3.0621 2.12121 3 2.45989 3C2.80749 3 3.1328 3.0621 3.43583 3.18629C3.74777 3.31049 4.01961 3.48348 4.25134 3.70526C4.48307 3.92703 4.66578 4.1843 4.79947 4.47705C4.93316 4.76979 5 5.08472 5 5.42182Z" fill="white"/>
<path d="M22.2 5.18182C22.0485 5.42424 21.8869 5.60606 21.7152 5.72727C21.5536 5.84848 21.3415 5.90909 21.0788 5.90909C20.8465 5.90909 20.594 5.83838 20.3213 5.69697C20.0586 5.54545 19.7556 5.37879 19.4122 5.19697C19.0788 5.01515 18.695 4.85353 18.2607 4.71212C17.8263 4.56061 17.3314 4.48485 16.7758 4.48485C15.8162 4.48485 15.099 4.69192 14.6243 5.10606C14.1596 5.5101 13.9273 6.06061 13.9273 6.75758C13.9273 7.20202 14.0687 7.57071 14.3516 7.86364C14.6344 8.15656 15.0031 8.40909 15.4576 8.62121C15.9223 8.83333 16.4475 9.0303 17.0334 9.21212C17.6293 9.38384 18.2354 9.58081 18.8516 9.80303C19.4677 10.0152 20.0687 10.2677 20.6546 10.5606C21.2506 10.8535 21.7758 11.2273 22.2304 11.6818C22.695 12.1364 23.0687 12.6919 23.3516 13.3485C23.6344 13.9949 23.7758 14.7778 23.7758 15.697C23.7758 16.7172 23.599 17.6717 23.2455 18.5606C22.892 19.4495 22.3768 20.2273 21.7 20.8939C21.0334 21.5505 20.2051 22.0707 19.2152 22.4545C18.2354 22.8283 17.1192 23.0152 15.8667 23.0152C15.1798 23.0152 14.4778 22.9444 13.7607 22.803C13.0536 22.6616 12.3667 22.4646 11.7 22.2121C11.0334 21.9495 10.4071 21.6414 9.82126 21.2879C9.2354 20.9343 8.7253 20.5404 8.29095 20.1061L9.80611 17.7121C9.92732 17.5404 10.0839 17.399 10.2758 17.2879C10.4778 17.1667 10.695 17.1061 10.9273 17.1061C11.2303 17.1061 11.5334 17.202 11.8364 17.3939C12.1495 17.5859 12.498 17.798 12.8819 18.0303C13.2758 18.2626 13.7253 18.4747 14.2303 18.6667C14.7354 18.8586 15.3314 18.9545 16.0182 18.9545C16.9475 18.9545 17.6697 18.7525 18.1849 18.3485C18.7 17.9343 18.9576 17.2828 18.9576 16.3939C18.9576 15.8788 18.8162 15.4596 18.5334 15.1364C18.2506 14.8131 17.8768 14.5455 17.4122 14.3333C16.9576 14.1212 16.4374 13.9343 15.8516 13.7727C15.2657 13.6111 14.6647 13.4343 14.0485 13.2424C13.4324 13.0404 12.8314 12.798 12.2455 12.5152C11.6596 12.2222 11.1344 11.8434 10.6697 11.3788C10.2152 10.904 9.84651 10.3182 9.56368 9.62121C9.28085 8.91414 9.13944 8.04545 9.13944 7.01515C9.13944 6.18687 9.30611 5.37879 9.63944 4.59091C9.97277 3.80303 10.4627 3.10101 11.1091 2.48485C11.7556 1.86869 12.5485 1.37879 13.4879 1.01515C14.4273 0.641413 15.5031 0.454545 16.7152 0.454545C17.392 0.454545 18.0485 0.510101 18.6849 0.621212C19.3314 0.722222 19.9425 0.878787 20.5182 1.09091C21.094 1.29293 21.6293 1.5404 22.1243 1.83333C22.6293 2.11616 23.0788 2.43939 23.4728 2.80303L22.2 5.18182Z" fill="white"/>
<path d="M30.7562 8.43939C31.3218 7.95455 31.9329 7.56566 32.5895 7.27273C33.2562 6.9697 34.0491 6.81818 34.9683 6.81818C35.8269 6.81818 36.5844 6.9697 37.241 7.27273C37.9077 7.56566 38.4683 7.9798 38.9228 8.51515C39.3774 9.0404 39.7208 9.67172 39.9531 10.4091C40.1854 11.1364 40.3016 11.9293 40.3016 12.7879V22.7727H35.6046V12.7879C35.6046 12.0202 35.4279 11.4242 35.0743 11C34.7208 10.5657 34.2006 10.3485 33.5137 10.3485C32.9986 10.3485 32.5137 10.4596 32.0592 10.6818C31.6147 10.8939 31.1804 11.1869 30.7562 11.5606V22.7727H26.0592V0.0909079H30.7562V8.43939Z" fill="white"/>
<path d="M50.5838 6.81818C51.7757 6.81818 52.8616 7.00505 53.8414 7.37879C54.8212 7.75252 55.6596 8.28788 56.3565 8.98485C57.0636 9.68182 57.6091 10.5303 57.9929 11.5303C58.3868 12.5202 58.5838 13.6364 58.5838 14.8788C58.5838 16.1313 58.3868 17.2626 57.9929 18.2727C57.6091 19.2727 57.0636 20.1263 56.3565 20.8333C55.6596 21.5303 54.8212 22.0707 53.8414 22.4545C52.8616 22.8283 51.7757 23.0152 50.5838 23.0152C49.3818 23.0152 48.2858 22.8283 47.2959 22.4545C46.3161 22.0707 45.4676 21.5303 44.7505 20.8333C44.0434 20.1263 43.4929 19.2727 43.099 18.2727C42.7151 17.2626 42.5232 16.1313 42.5232 14.8788C42.5232 13.6364 42.7151 12.5202 43.099 11.5303C43.4929 10.5303 44.0434 9.68182 44.7505 8.98485C45.4676 8.28788 46.3161 7.75252 47.2959 7.37879C48.2858 7.00505 49.3818 6.81818 50.5838 6.81818ZM50.5838 19.5303C51.6646 19.5303 52.4576 19.1515 52.9626 18.3939C53.4778 17.6263 53.7353 16.4646 53.7353 14.9091C53.7353 13.3535 53.4778 12.197 52.9626 11.4394C52.4576 10.6818 51.6646 10.303 50.5838 10.303C49.4727 10.303 48.6596 10.6818 48.1444 11.4394C47.6293 12.197 47.3717 13.3535 47.3717 14.9091C47.3717 16.4646 47.6293 17.6263 48.1444 18.3939C48.6596 19.1515 49.4727 19.5303 50.5838 19.5303Z" fill="white"/>
<path d="M65.6461 18.5C65.9996 18.8838 66.3834 19.1566 66.7976 19.3182C67.2117 19.4798 67.6461 19.5606 68.1006 19.5606C68.535 19.5606 68.934 19.4747 69.2976 19.303C69.6612 19.1313 69.9744 18.8586 70.237 18.4848C70.5097 18.101 70.7218 17.6061 70.8733 17C71.0249 16.3939 71.1006 15.6566 71.1006 14.7879C71.1006 13.9596 71.04 13.2626 70.9188 12.697C70.7976 12.1313 70.6259 11.6768 70.4036 11.3333C70.1915 10.9798 69.934 10.7273 69.6309 10.5758C69.3279 10.4242 68.9895 10.3485 68.6158 10.3485C67.9289 10.3485 67.3633 10.4747 66.9188 10.7273C66.4744 10.9798 66.0501 11.3485 65.6461 11.8333V18.5ZM65.3582 9C65.9744 8.34343 66.6713 7.80808 67.4491 7.39394C68.237 6.9697 69.1713 6.75758 70.2521 6.75758C71.0703 6.75758 71.8279 6.93939 72.5249 7.30303C73.2218 7.66667 73.8228 8.19192 74.3279 8.87879C74.8329 9.56565 75.2269 10.4091 75.5097 11.4091C75.8026 12.399 75.9491 13.5253 75.9491 14.7879C75.9491 15.9697 75.7824 17.0606 75.4491 18.0606C75.1259 19.0606 74.6663 19.9293 74.0703 20.6667C73.4845 21.404 72.7774 21.9798 71.9491 22.3939C71.1309 22.8081 70.2218 23.0152 69.2218 23.0152C68.4037 23.0152 67.7168 22.899 67.1612 22.6667C66.6057 22.4343 66.1006 22.1212 65.6461 21.7273V27.7576H60.9491V7.06061H63.8582C64.444 7.06061 64.8279 7.32323 65.0097 7.84848L65.3582 9Z" fill="white"/>
<path d="M83.0762 18.5C83.4298 18.8838 83.8136 19.1566 84.2278 19.3182C84.6419 19.4798 85.0762 19.5606 85.5308 19.5606C85.9651 19.5606 86.3641 19.4747 86.7278 19.303C87.0914 19.1313 87.4045 18.8586 87.6671 18.4848C87.9399 18.101 88.152 17.6061 88.3035 17C88.455 16.3939 88.5308 15.6566 88.5308 14.7879C88.5308 13.9596 88.4702 13.2626 88.349 12.697C88.2278 12.1313 88.056 11.6768 87.8338 11.3333C87.6217 10.9798 87.3641 10.7273 87.0611 10.5758C86.7581 10.4242 86.4197 10.3485 86.0459 10.3485C85.3591 10.3485 84.7934 10.4747 84.349 10.7273C83.9045 10.9798 83.4803 11.3485 83.0762 11.8333V18.5ZM82.7884 9C83.4045 8.34343 84.1015 7.80808 84.8793 7.39394C85.6671 6.9697 86.6015 6.75758 87.6823 6.75758C88.5005 6.75758 89.2581 6.93939 89.955 7.30303C90.652 7.66667 91.253 8.19192 91.7581 8.87879C92.2631 9.56565 92.657 10.4091 92.9399 11.4091C93.2328 12.399 93.3793 13.5253 93.3793 14.7879C93.3793 15.9697 93.2126 17.0606 92.8793 18.0606C92.556 19.0606 92.0964 19.9293 91.5005 20.6667C90.9146 21.404 90.2076 21.9798 89.3793 22.3939C88.5611 22.8081 87.652 23.0152 86.652 23.0152C85.8338 23.0152 85.1469 22.899 84.5914 22.6667C84.0358 22.4343 83.5308 22.1212 83.0762 21.7273V27.7576H78.3793V7.06061H81.2884C81.8742 7.06061 82.2581 7.32323 82.4399 7.84848L82.7884 9Z" fill="white"/>
<path d="M100.612 7.06061V22.7727H95.9155V7.06061H100.612ZM101.097 2.75757C101.097 3.13131 101.022 3.48485 100.87 3.81818C100.719 4.14141 100.511 4.42929 100.249 4.68182C99.9862 4.92424 99.6781 5.12121 99.3246 5.27273C98.9811 5.41414 98.6125 5.48485 98.2185 5.48485C97.8347 5.48485 97.4761 5.41414 97.1428 5.27273C96.8094 5.12121 96.5114 4.92424 96.2488 4.68182C95.9963 4.42929 95.7943 4.14141 95.6428 3.81818C95.5014 3.48485 95.4306 3.13131 95.4306 2.75757C95.4306 2.37374 95.5014 2.01515 95.6428 1.68182C95.7943 1.34848 95.9963 1.05555 96.2488 0.80303C96.5114 0.550505 96.8094 0.353535 97.1428 0.21212C97.4761 0.0707068 97.8347 0 98.2185 0C98.6125 0 98.9811 0.0707068 99.3246 0.21212C99.6781 0.353535 99.9862 0.550505 100.249 0.80303C100.511 1.05555 100.719 1.34848 100.87 1.68182C101.022 2.01515 101.097 2.37374 101.097 2.75757Z" fill="white"/>
<path d="M108.222 8.75757C108.525 8.47475 108.838 8.21212 109.161 7.9697C109.484 7.72727 109.828 7.52525 110.191 7.36364C110.565 7.19192 110.964 7.06061 111.388 6.9697C111.823 6.86869 112.292 6.81818 112.797 6.81818C113.656 6.81818 114.414 6.9697 115.07 7.27273C115.737 7.56566 116.297 7.9798 116.752 8.51515C117.206 9.0404 117.55 9.67172 117.782 10.4091C118.015 11.1364 118.131 11.9293 118.131 12.7879V22.7727H113.434V12.7879C113.434 12.0202 113.257 11.4242 112.903 11C112.55 10.5657 112.03 10.3485 111.343 10.3485C110.828 10.3485 110.343 10.4596 109.888 10.6818C109.444 10.8939 109.009 11.1869 108.585 11.5606V22.7727H103.888V7.06061H106.797C107.383 7.06061 107.767 7.32323 107.949 7.84848L108.222 8.75757Z" fill="white"/>
<path d="M127.155 14.0909C127.933 14.0909 128.494 13.899 128.837 13.5152C129.191 13.1212 129.367 12.6162 129.367 12C129.367 11.3636 129.191 10.8636 128.837 10.5C128.494 10.1364 127.933 9.95455 127.155 9.95455C126.378 9.95455 125.812 10.1364 125.458 10.5C125.115 10.8636 124.943 11.3636 124.943 12C124.943 12.303 124.984 12.5808 125.064 12.8333C125.155 13.0859 125.292 13.3081 125.473 13.5C125.655 13.6818 125.883 13.8283 126.155 13.9394C126.438 14.0404 126.771 14.0909 127.155 14.0909ZM130.792 23.3485C130.792 22.9747 130.625 22.7071 130.292 22.5455C129.958 22.3737 129.524 22.2525 128.989 22.1818C128.453 22.1111 127.852 22.0707 127.186 22.0606C126.529 22.0404 125.872 22 125.216 21.9394C124.923 22.1414 124.681 22.3687 124.489 22.6212C124.307 22.8636 124.216 23.1414 124.216 23.4545C124.216 23.6768 124.261 23.8788 124.352 24.0606C124.453 24.2424 124.625 24.399 124.867 24.5303C125.11 24.6616 125.433 24.7626 125.837 24.8333C126.251 24.9141 126.771 24.9545 127.398 24.9545C128.075 24.9545 128.63 24.9141 129.064 24.8333C129.499 24.7525 129.842 24.6414 130.095 24.5C130.357 24.3586 130.539 24.1869 130.64 23.9848C130.741 23.7929 130.792 23.5808 130.792 23.3485ZM135.428 7.54545V9.25758C135.428 9.5202 135.352 9.72727 135.201 9.87879C135.059 10.0303 134.812 10.1465 134.458 10.2273L133.322 10.4848C133.383 10.7071 133.428 10.9343 133.458 11.1667C133.499 11.399 133.519 11.6414 133.519 11.8939C133.519 12.6818 133.352 13.3889 133.019 14.0152C132.696 14.6414 132.246 15.1768 131.67 15.6212C131.105 16.0556 130.433 16.3939 129.655 16.6364C128.878 16.8687 128.044 16.9848 127.155 16.9848C126.913 16.9848 126.676 16.9798 126.443 16.9697C126.211 16.9495 125.984 16.9192 125.761 16.8788C125.418 17.0909 125.246 17.3283 125.246 17.5909C125.246 17.8535 125.388 18.0455 125.67 18.1667C125.953 18.2778 126.327 18.3586 126.792 18.4091C127.256 18.4495 127.782 18.4798 128.367 18.5C128.963 18.5101 129.569 18.5455 130.186 18.6061C130.802 18.6566 131.403 18.7475 131.989 18.8788C132.585 19.0101 133.115 19.2222 133.58 19.5152C134.044 19.8081 134.418 20.202 134.701 20.697C134.984 21.1818 135.125 21.803 135.125 22.5606C135.125 23.2677 134.953 23.9596 134.61 24.6364C134.266 25.3131 133.761 25.9141 133.095 26.4394C132.428 26.9646 131.61 27.3838 130.64 27.697C129.67 28.0202 128.559 28.1818 127.307 28.1818C126.075 28.1818 125.009 28.0657 124.11 27.8333C123.221 27.601 122.479 27.2929 121.883 26.9091C121.297 26.5354 120.862 26.101 120.58 25.6061C120.297 25.1111 120.155 24.596 120.155 24.0606C120.155 23.3636 120.357 22.7828 120.761 22.3182C121.165 21.8535 121.731 21.4798 122.458 21.197C122.075 20.9646 121.771 20.6667 121.549 20.303C121.327 19.9394 121.216 19.4697 121.216 18.8939C121.216 18.6616 121.256 18.4192 121.337 18.1667C121.418 17.904 121.544 17.6515 121.716 17.4091C121.898 17.1566 122.12 16.9192 122.383 16.697C122.645 16.4747 122.958 16.2778 123.322 16.1061C122.504 15.6717 121.857 15.101 121.383 14.3939C120.908 13.6768 120.67 12.8434 120.67 11.8939C120.67 11.1061 120.837 10.399 121.17 9.77273C121.504 9.13636 121.958 8.60101 122.534 8.16667C123.12 7.72222 123.807 7.38384 124.595 7.15151C125.383 6.90909 126.236 6.78788 127.155 6.78788C128.489 6.78788 129.67 7.0404 130.701 7.54545H135.428Z" fill="white"/>
<circle cx="142.97" cy="19.995" r="3.0303" fill="#FFED4F"/>
</svg>
