<svg width="124" height="24" viewBox="0 0 124 24" fill="none" xmlns="http://www.w3.org/2000/svg">
<path d="M3.88323 7.81452V19.5343H0.363343V7.81452H3.88323ZM4.24658 4.60486C4.24658 4.88364 4.1898 5.14734 4.07626 5.39598C3.96271 5.63708 3.80754 5.85181 3.61072 6.04017C3.41391 6.22099 3.18304 6.36791 2.9181 6.48093C2.66073 6.58641 2.38444 6.63915 2.08922 6.63915C1.80158 6.63915 1.53285 6.58641 1.28306 6.48093C1.03326 6.36791 0.809953 6.22099 0.613142 6.04017C0.423901 5.85181 0.272507 5.63708 0.158963 5.39598C0.0529876 5.14734 0 4.88364 0 4.60486C0 4.31856 0.0529876 4.05109 0.158963 3.80245C0.272507 3.55382 0.423901 3.33532 0.613142 3.14696C0.809953 2.9586 1.03326 2.81168 1.28306 2.7062C1.53285 2.60071 1.80158 2.54797 2.08922 2.54797C2.38444 2.54797 2.66073 2.60071 2.9181 2.7062C3.18304 2.81168 3.41391 2.9586 3.61072 3.14696C3.80754 3.33532 3.96271 3.55382 4.07626 3.80245C4.1898 4.05109 4.24658 4.31856 4.24658 4.60486Z" fill="#5024E1"/>
<path d="M18.8547 4.401C18.726 4.60689 18.5888 4.76131 18.4429 4.86426C18.3057 4.96721 18.1255 5.01868 17.9024 5.01868C17.7051 5.01868 17.4907 4.95863 17.259 4.83852C17.036 4.70984 16.7786 4.56828 16.4869 4.41386C16.2038 4.25944 15.8778 4.12218 15.5089 4.00208C15.14 3.87339 14.7197 3.80905 14.2478 3.80905C13.4328 3.80905 12.8237 3.98492 12.4205 4.33665C12.0259 4.67981 11.8286 5.14736 11.8286 5.73931C11.8286 6.11678 11.9487 6.42992 12.1889 6.6787C12.4291 6.92749 12.7422 7.14197 13.1283 7.32213C13.5229 7.50228 13.969 7.66957 14.4666 7.82399C14.9727 7.96984 15.4875 8.13712 16.0108 8.32586C16.5341 8.50602 17.0445 8.72049 17.5421 8.96928C18.0483 9.21807 18.4944 9.53549 18.8804 9.92154C19.2751 10.3076 19.5925 10.7794 19.8327 11.3371C20.0729 11.8861 20.193 12.551 20.193 13.3317C20.193 14.1981 20.0429 15.0089 19.7426 15.7638C19.4424 16.5187 19.0048 17.1793 18.43 17.7455C17.8638 18.3032 17.1604 18.745 16.3196 19.071C15.4875 19.3884 14.5395 19.5471 13.4757 19.5471C12.8923 19.5471 12.2961 19.4871 11.687 19.367C11.0865 19.2469 10.5031 19.0796 9.9369 18.8651C9.37069 18.642 8.83879 18.3804 8.34121 18.0801C7.84363 17.7799 7.4104 17.4453 7.0415 17.0764L8.32835 15.0432C8.43129 14.8973 8.56427 14.7772 8.72727 14.6829C8.89885 14.5799 9.08329 14.5284 9.28061 14.5284C9.53798 14.5284 9.79534 14.6099 10.0527 14.7729C10.3187 14.9359 10.6146 15.1161 10.9406 15.3134C11.2752 15.5107 11.657 15.6909 12.0859 15.8539C12.5149 16.0169 13.021 16.0984 13.6044 16.0984C14.3937 16.0984 15.0071 15.9268 15.4446 15.5836C15.8821 15.2319 16.1009 14.6786 16.1009 13.9236C16.1009 13.4861 15.9808 13.1301 15.7406 12.8555C15.5003 12.581 15.1829 12.3537 14.7883 12.1735C14.4022 11.9934 13.9604 11.8346 13.4628 11.6974C12.9653 11.5601 12.4548 11.41 11.9315 11.247C11.4082 11.0754 10.8977 10.8695 10.4002 10.6293C9.90258 10.3805 9.45648 10.0588 9.06184 9.66418C8.67579 9.26097 8.36266 8.76339 8.12245 8.17144C7.88224 7.57091 7.76214 6.83313 7.76214 5.95807C7.76214 5.2546 7.90369 4.56828 8.18679 3.89913C8.4699 3.22997 8.88598 2.63373 9.43503 2.11042C9.98408 1.5871 10.6575 1.17102 11.4554 0.862182C12.2532 0.544762 13.1669 0.386052 14.1963 0.386052C14.7711 0.386052 15.3288 0.433236 15.8692 0.527605C16.4183 0.613394 16.9373 0.746367 17.4263 0.926524C17.9153 1.0981 18.37 1.30829 18.7904 1.55708C19.2193 1.79729 19.6011 2.07181 19.9357 2.38066L18.8547 4.401Z" fill="#5024E1"/>
<path d="M26.1215 7.1677C26.602 6.75592 27.121 6.42563 27.6786 6.17684C28.2448 5.91947 28.9183 5.79078 29.699 5.79078C30.4282 5.79078 31.0716 5.91947 31.6292 6.17684C32.1954 6.42563 32.6716 6.77736 33.0576 7.23205C33.4437 7.67815 33.7353 8.21433 33.9327 8.8406C34.13 9.45828 34.2286 10.1317 34.2286 10.8609V19.3412H30.2394V10.8609C30.2394 10.2089 30.0893 9.70278 29.789 9.34247C29.4888 8.97357 29.047 8.78912 28.4636 8.78912C28.0261 8.78912 27.6143 8.88349 27.2282 9.07223C26.8507 9.25239 26.4819 9.50118 26.1215 9.8186V19.3412H22.1323V0.0772095H26.1215V7.1677Z" fill="#5024E1"/>
<path d="M42.9615 5.79078C43.9738 5.79078 44.896 5.94949 45.7282 6.26692C46.5603 6.58434 47.2724 7.03902 47.8643 7.63097C48.4649 8.22291 48.9281 8.94354 49.2541 9.79286C49.5887 10.6336 49.756 11.5816 49.756 12.6368C49.756 13.7006 49.5887 14.6614 49.2541 15.5193C48.9281 16.3686 48.4649 17.0935 47.8643 17.6941C47.2724 18.286 46.5603 18.745 45.7282 19.071C44.896 19.3884 43.9738 19.5471 42.9615 19.5471C41.9406 19.5471 41.0098 19.3884 40.169 19.071C39.3369 18.745 38.6162 18.286 38.0071 17.6941C37.4066 17.0935 36.939 16.3686 36.6045 15.5193C36.2785 14.6614 36.1155 13.7006 36.1155 12.6368C36.1155 11.5816 36.2785 10.6336 36.6045 9.79286C36.939 8.94354 37.4066 8.22291 38.0071 7.63097C38.6162 7.03902 39.3369 6.58434 40.169 6.26692C41.0098 5.94949 41.9406 5.79078 42.9615 5.79078ZM42.9615 16.5874C43.8794 16.5874 44.5529 16.2657 44.9818 15.6223C45.4193 14.9703 45.6381 13.9837 45.6381 12.6625C45.6381 11.3414 45.4193 10.3591 44.9818 9.71565C44.5529 9.07223 43.8794 8.75052 42.9615 8.75052C42.0178 8.75052 41.3272 9.07223 40.8896 9.71565C40.4521 10.3591 40.2334 11.3414 40.2334 12.6625C40.2334 13.9837 40.4521 14.9703 40.8896 15.6223C41.3272 16.2657 42.0178 16.5874 42.9615 16.5874Z" fill="#5024E1"/>
<path d="M55.7541 15.7123C56.0543 16.0383 56.3803 16.27 56.7321 16.4072C57.0838 16.5445 57.4527 16.6131 57.8388 16.6131C58.2076 16.6131 58.5465 16.5402 58.8554 16.3944C59.1642 16.2485 59.4301 16.0169 59.6532 15.6995C59.8848 15.3735 60.065 14.9531 60.1937 14.4384C60.3224 13.9236 60.3867 13.2974 60.3867 12.5596C60.3867 11.8561 60.3352 11.2641 60.2323 10.7837C60.1293 10.3033 59.9835 9.91725 59.7948 9.62557C59.6146 9.32531 59.3958 9.11083 59.1385 8.98215C58.8811 8.85347 58.5937 8.78912 58.2763 8.78912C57.6929 8.78912 57.2125 8.89636 56.835 9.11083C56.4576 9.32531 56.0972 9.63844 55.7541 10.0502V15.7123ZM55.5096 7.64384C56.0329 7.0862 56.6248 6.63152 57.2854 6.27978C57.9546 5.91947 58.7481 5.73931 59.6661 5.73931C60.361 5.73931 61.0044 5.89373 61.5963 6.20257C62.1883 6.51142 62.6987 6.95752 63.1277 7.54089C63.5566 8.12426 63.8912 8.8406 64.1314 9.68991C64.3802 10.5306 64.5046 11.4872 64.5046 12.5596C64.5046 13.5633 64.363 14.4898 64.0799 15.3391C63.8054 16.1885 63.4151 16.9262 62.9089 17.5525C62.4113 18.1788 61.8108 18.6678 61.1073 19.0195C60.4124 19.3712 59.6403 19.5471 58.791 19.5471C58.0961 19.5471 57.5128 19.4485 57.0409 19.2511C56.5691 19.0538 56.1401 18.7879 55.7541 18.4533V23.5749H51.7649V5.99668H54.2356C54.7332 5.99668 55.0592 6.21973 55.2136 6.66584L55.5096 7.64384Z" fill="#5024E1"/>
<path d="M70.5578 15.7123C70.858 16.0383 71.184 16.27 71.5358 16.4072C71.8875 16.5445 72.2564 16.6131 72.6425 16.6131C73.0113 16.6131 73.3502 16.5402 73.6591 16.3944C73.9679 16.2485 74.2338 16.0169 74.4569 15.6995C74.6885 15.3735 74.8687 14.9531 74.9974 14.4384C75.1261 13.9236 75.1904 13.2974 75.1904 12.5596C75.1904 11.8561 75.1389 11.2641 75.036 10.7837C74.933 10.3033 74.7872 9.91725 74.5984 9.62557C74.4183 9.32531 74.1995 9.11083 73.9422 8.98215C73.6848 8.85347 73.3974 8.78912 73.08 8.78912C72.4966 8.78912 72.0162 8.89636 71.6387 9.11083C71.2612 9.32531 70.9009 9.63844 70.5578 10.0502V15.7123ZM70.3133 7.64384C70.8366 7.0862 71.4285 6.63152 72.0891 6.27978C72.7583 5.91947 73.5518 5.73931 74.4698 5.73931C75.1647 5.73931 75.8081 5.89373 76.4 6.20257C76.992 6.51142 77.5024 6.95752 77.9314 7.54089C78.3603 8.12426 78.6949 8.8406 78.9351 9.68991C79.1839 10.5306 79.3083 11.4872 79.3083 12.5596C79.3083 13.5633 79.1667 14.4898 78.8836 15.3391C78.6091 16.1885 78.2188 16.9262 77.7126 17.5525C77.215 18.1788 76.6145 18.6678 75.911 19.0195C75.2161 19.3712 74.444 19.5471 73.5947 19.5471C72.8998 19.5471 72.3165 19.4485 71.8446 19.2511C71.3728 19.0538 70.9438 18.7879 70.5578 18.4533V23.5749H66.5686V5.99668H69.0393C69.5369 5.99668 69.8629 6.21973 70.0173 6.66584L70.3133 7.64384Z" fill="#5024E1"/>
<path d="M85.4515 5.99668V19.3412H81.4623V5.99668H85.4515ZM85.8633 2.34205C85.8633 2.65947 85.799 2.95973 85.6703 3.24284C85.5416 3.51736 85.3658 3.76186 85.1427 3.97634C84.9196 4.18223 84.658 4.34952 84.3577 4.47821C84.0661 4.59831 83.7529 4.65836 83.4183 4.65836C83.0923 4.65836 82.7878 4.59831 82.5047 4.47821C82.2216 4.34952 81.9685 4.18223 81.7454 3.97634C81.531 3.76186 81.3594 3.51736 81.2307 3.24284C81.1106 2.95973 81.0506 2.65947 81.0506 2.34205C81.0506 2.01605 81.1106 1.7115 81.2307 1.42839C81.3594 1.14529 81.531 0.896499 81.7454 0.682025C81.9685 0.467552 82.2216 0.300263 82.5047 0.180157C82.7878 0.0600523 83.0923 0 83.4183 0C83.7529 0 84.0661 0.0600523 84.3577 0.180157C84.658 0.300263 84.9196 0.467552 85.1427 0.682025C85.3658 0.896499 85.5416 1.14529 85.6703 1.42839C85.799 1.7115 85.8633 2.01605 85.8633 2.34205Z" fill="#5024E1"/>
<path d="M91.9141 7.43794C92.1715 7.19773 92.4374 6.97468 92.7119 6.76878C92.9865 6.56289 93.2782 6.39131 93.587 6.25405C93.9044 6.1082 94.2433 5.99668 94.6036 5.91947C94.9725 5.83368 95.3714 5.79078 95.8004 5.79078C96.5296 5.79078 97.173 5.91947 97.7306 6.17684C98.2968 6.42563 98.773 6.77736 99.159 7.23205C99.5451 7.67815 99.8368 8.21433 100.034 8.8406C100.231 9.45828 100.33 10.1317 100.33 10.8609V19.3412H96.3408V10.8609C96.3408 10.2089 96.1907 9.70278 95.8904 9.34247C95.5902 8.97357 95.1484 8.78912 94.565 8.78912C94.1275 8.78912 93.7157 8.88349 93.3296 9.07223C92.9522 9.25239 92.5833 9.50118 92.2229 9.8186V19.3412H88.2337V5.99668H90.7045C91.202 5.99668 91.528 6.21973 91.6825 6.66584L91.9141 7.43794Z" fill="#5024E1"/>
<path d="M107.995 11.9676C108.655 11.9676 109.132 11.8046 109.423 11.4786C109.723 11.144 109.874 10.7151 109.874 10.1918C109.874 9.65131 109.723 9.22665 109.423 8.91781C109.132 8.60897 108.655 8.45455 107.995 8.45455C107.334 8.45455 106.854 8.60897 106.554 8.91781C106.262 9.22665 106.116 9.65131 106.116 10.1918C106.116 10.4491 106.15 10.6851 106.219 10.8995C106.296 11.114 106.412 11.3028 106.566 11.4658C106.721 11.6202 106.914 11.7446 107.145 11.8389C107.386 11.9247 107.669 11.9676 107.995 11.9676ZM111.083 19.8302C111.083 19.5128 110.942 19.2855 110.659 19.1482C110.375 19.0024 110.007 18.8994 109.552 18.8394C109.097 18.7793 108.587 18.745 108.021 18.7364C107.463 18.7192 106.905 18.6849 106.348 18.6335C106.099 18.805 105.893 18.9981 105.73 19.2125C105.576 19.4184 105.498 19.6544 105.498 19.9203C105.498 20.109 105.537 20.2806 105.614 20.435C105.7 20.5895 105.846 20.7224 106.052 20.834C106.258 20.9455 106.532 21.0313 106.875 21.0913C107.227 21.16 107.669 21.1943 108.201 21.1943C108.775 21.1943 109.247 21.16 109.616 21.0913C109.985 21.0227 110.277 20.9283 110.491 20.8082C110.714 20.6881 110.869 20.5423 110.955 20.3707C111.04 20.2077 111.083 20.0275 111.083 19.8302ZM115.021 6.40847V7.8626C115.021 8.08565 114.957 8.26152 114.828 8.3902C114.708 8.51889 114.498 8.61755 114.197 8.68618L113.232 8.90494C113.284 9.09368 113.322 9.2867 113.348 9.48402C113.382 9.68133 113.4 9.88723 113.4 10.1017C113.4 10.7709 113.258 11.3714 112.975 11.9033C112.7 12.4352 112.319 12.8899 111.83 13.2673C111.349 13.6362 110.779 13.9236 110.118 14.1295C109.458 14.3268 108.75 14.4255 107.995 14.4255C107.789 14.4255 107.587 14.4212 107.39 14.4126C107.193 14.3955 107 14.3697 106.811 14.3354C106.519 14.5156 106.373 14.7172 106.373 14.9402C106.373 15.1633 106.493 15.3263 106.734 15.4292C106.974 15.5236 107.291 15.5922 107.686 15.6351C108.081 15.6694 108.527 15.6952 109.024 15.7123C109.53 15.7209 110.045 15.7509 110.568 15.8024C111.092 15.8453 111.602 15.9225 112.1 16.034C112.606 16.1456 113.056 16.3257 113.451 16.5745C113.846 16.8233 114.163 17.1579 114.403 17.5782C114.643 17.99 114.764 18.5176 114.764 19.1611C114.764 19.7616 114.618 20.3492 114.326 20.924C114.034 21.4988 113.605 22.0093 113.039 22.4554C112.473 22.9015 111.778 23.2575 110.955 23.5235C110.131 23.798 109.187 23.9352 108.123 23.9352C107.077 23.9352 106.172 23.8366 105.408 23.6393C104.653 23.442 104.023 23.1803 103.517 22.8543C103.019 22.5369 102.65 22.168 102.41 21.7476C102.17 21.3272 102.05 20.8897 102.05 20.435C102.05 19.8431 102.221 19.3498 102.564 18.9552C102.907 18.5605 103.388 18.2431 104.006 18.0029C103.68 17.8056 103.422 17.5525 103.233 17.2437C103.045 16.9348 102.95 16.5359 102.95 16.0469C102.95 15.8496 102.985 15.6437 103.053 15.4292C103.122 15.2062 103.229 14.9917 103.375 14.7858C103.529 14.5713 103.718 14.3697 103.941 14.181C104.164 13.9923 104.43 13.825 104.739 13.6791C104.044 13.3102 103.495 12.8255 103.092 12.225C102.689 11.6159 102.487 10.9081 102.487 10.1017C102.487 9.43254 102.629 8.83202 102.912 8.30012C103.195 7.75965 103.581 7.30497 104.07 6.93607C104.568 6.5586 105.151 6.2712 105.82 6.07389C106.489 5.86799 107.214 5.76505 107.995 5.76505C109.127 5.76505 110.131 5.97952 111.006 6.40847H115.021Z" fill="#5024E1"/>
<circle cx="121.426" cy="16.982" r="2.57368" fill="#5024E1"/>
</svg>
