<svg width="32" height="32" viewBox="0 0 32 32" fill="none" xmlns="http://www.w3.org/2000/svg">
<path fill-rule="evenodd" clip-rule="evenodd" d="M15.4196 0.055184C14.7389 0.183314 14.3918 0.41486 13.0746 1.61952C12.2442 2.37885 11.7305 2.80184 11.5673 2.86039C11.3424 2.9411 11.1824 2.93097 9.82571 2.74978C9.00401 2.64005 8.13721 2.54777 7.89946 2.5447C6.92459 2.53219 6.03149 2.98296 5.48936 3.76118C5.15914 4.23528 5.09127 4.46658 4.77554 6.19364C4.63138 6.98225 4.46868 7.71042 4.41393 7.81184C4.29332 8.03544 4.12253 8.13998 2.78455 8.80885C0.962981 9.71939 0.647834 9.95901 0.27441 10.7171C0.0649868 11.1423 0.0017488 11.4402 5.20121e-05 12.0103C-0.00157952 12.5404 0.0970954 12.8 0.904963 14.3907C1.4358 15.436 1.59503 15.8081 1.59503 16.0037C1.59503 16.1993 1.4358 16.5714 0.904963 17.6167C0.0970954 19.2074 -0.00157952 19.4669 5.20121e-05 19.9971C0.0017488 20.5672 0.0649868 20.8651 0.27441 21.2903C0.647834 22.0484 0.962981 22.288 2.78455 23.1985C4.12253 23.8674 4.29332 23.9719 4.41393 24.1955C4.46868 24.2969 4.63164 25.0266 4.77613 25.817C4.92061 26.6074 5.07933 27.3829 5.12873 27.5405C5.48225 28.6665 6.57635 29.4515 7.80966 29.4641C8.06092 29.4666 8.95343 29.3763 9.79308 29.2634C11.1812 29.0767 11.3421 29.0661 11.5673 29.147C11.7305 29.2055 12.2442 29.6285 13.0746 30.3878C14.0768 31.3044 14.4168 31.5769 14.7379 31.7209C15.5671 32.093 16.4327 32.093 17.262 31.7209C17.5831 31.5769 17.9231 31.3044 18.9253 30.3878C19.7557 29.6285 20.2694 29.2055 20.4326 29.147C20.6575 29.0663 20.8175 29.0764 22.1742 29.2576C22.9959 29.3673 23.8627 29.4596 24.1004 29.4627C25.0753 29.4752 25.9684 29.0244 26.5105 28.2462C26.8407 27.7721 26.9086 27.5408 27.2243 25.8137C27.3685 25.0251 27.5312 24.2969 27.5859 24.1955C27.7077 23.9697 27.8542 23.8813 29.3873 23.1087C30.8321 22.3806 31.1523 22.1617 31.5024 21.6625C31.8478 21.17 31.9945 20.7076 31.9998 20.0944C32.0052 19.4601 31.9387 19.2781 31.0949 17.6167C30.5641 16.5714 30.4048 16.1993 30.4048 16.0037C30.4048 15.8081 30.5641 15.436 31.0949 14.3907C31.9387 12.7293 32.0052 12.5473 31.9998 11.913C31.9945 11.2998 31.8478 10.8374 31.5024 10.3448C31.1523 9.84564 30.8321 9.62674 29.3873 8.89862C27.8542 8.12603 27.7077 8.03769 27.5859 7.81184C27.5312 7.71042 27.3685 6.98225 27.2243 6.19364C26.9086 4.46658 26.8407 4.23528 26.5105 3.76118C25.9684 2.98296 25.0753 2.53219 24.1004 2.5447C23.8627 2.54777 22.9959 2.64005 22.1742 2.74978C20.8175 2.93097 20.6575 2.9411 20.4326 2.86039C20.2694 2.80184 19.7557 2.37885 18.9253 1.61952C17.9383 0.716915 17.5806 0.429312 17.273 0.291298C16.6457 0.00995079 16.0578 -0.065 15.4196 0.055184Z" fill="#5024E1"/>
<path opacity="0.7" d="M21.25 10.75L10.75 21.25" stroke="white" stroke-width="1.5" stroke-linecap="round" stroke-linejoin="round"/>
<path d="M11.875 13.75C12.9105 13.75 13.75 12.9106 13.75 11.875C13.75 10.8395 12.9105 10 11.875 10C10.8395 10 10 10.8395 10 11.875C10 12.9106 10.8395 13.75 11.875 13.75Z" stroke="white" stroke-width="1.5" stroke-linecap="round" stroke-linejoin="round"/>
<path d="M20.125 22C21.1605 22 22 21.1605 22 20.125C22 19.0895 21.1605 18.25 20.125 18.25C19.0895 18.25 18.25 19.0895 18.25 20.125C18.25 21.1605 19.0895 22 20.125 22Z" stroke="white" stroke-width="1.5" stroke-linecap="round" stroke-linejoin="round"/>
</svg>
