<svg width="48" height="48" viewBox="0 0 48 48" fill="none" xmlns="http://www.w3.org/2000/svg">
<path opacity="0.7" d="M24 27C25.6569 27 27 25.6569 27 24C27 22.3431 25.6569 21 24 21C22.3431 21 21 22.3431 21 24C21 25.6569 22.3431 27 24 27Z" stroke="white" stroke-width="2" stroke-linecap="round" stroke-linejoin="round"/>
<path d="M32.0727 27.2727C31.9275 27.6018 31.8842 27.9668 31.9484 28.3206C32.0125 28.6745 32.1812 29.0011 32.4327 29.2582L32.4982 29.3236C32.701 29.5263 32.862 29.7669 32.9718 30.0318C33.0816 30.2966 33.1381 30.5805 33.1381 30.8673C33.1381 31.154 33.0816 31.4379 32.9718 31.7028C32.862 31.9676 32.701 32.2083 32.4982 32.4109C32.2956 32.6138 32.0549 32.7747 31.7901 32.8845C31.5252 32.9943 31.2413 33.0508 30.9545 33.0508C30.6678 33.0508 30.3839 32.9943 30.119 32.8845C29.8542 32.7747 29.6135 32.6138 29.4109 32.4109L29.3455 32.3455C29.0884 32.094 28.7618 31.9253 28.4079 31.8611C28.054 31.7969 27.689 31.8402 27.36 31.9855C27.0373 32.1237 26.7622 32.3534 26.5683 32.646C26.3745 32.9387 26.2705 33.2817 26.2691 33.6327V33.8182C26.2691 34.3968 26.0392 34.9518 25.6301 35.361C25.2209 35.7701 24.6659 36 24.0873 36C23.5086 36 22.9537 35.7701 22.5445 35.361C22.1353 34.9518 21.9055 34.3968 21.9055 33.8182V33.72C21.897 33.3589 21.7801 33.0087 21.57 32.7149C21.3599 32.4212 21.0663 32.1974 20.7273 32.0727C20.3982 31.9275 20.0332 31.8842 19.6794 31.9484C19.3255 32.0125 18.9989 32.1812 18.7418 32.4327L18.6764 32.4982C18.4737 32.701 18.2331 32.862 17.9682 32.9718C17.7034 33.0816 17.4195 33.1381 17.1327 33.1381C16.846 33.1381 16.5621 33.0816 16.2972 32.9718C16.0324 32.862 15.7917 32.701 15.5891 32.4982C15.3862 32.2956 15.2253 32.0549 15.1155 31.7901C15.0057 31.5252 14.9492 31.2413 14.9492 30.9545C14.9492 30.6678 15.0057 30.3839 15.1155 30.119C15.2253 29.8542 15.3862 29.6135 15.5891 29.4109L15.6545 29.3455C15.906 29.0884 16.0747 28.7618 16.1389 28.4079C16.2031 28.054 16.1598 27.689 16.0145 27.36C15.8763 27.0373 15.6466 26.7622 15.354 26.5683C15.0613 26.3745 14.7183 26.2705 14.3673 26.2691H14.1818C13.6032 26.2691 13.0482 26.0392 12.639 25.6301C12.2299 25.2209 12 24.6659 12 24.0873C12 23.5086 12.2299 22.9537 12.639 22.5445C13.0482 22.1353 13.6032 21.9055 14.1818 21.9055H14.28C14.6411 21.897 14.9913 21.7801 15.2851 21.57C15.5788 21.3599 15.8026 21.0663 15.9273 20.7273C16.0725 20.3982 16.1158 20.0332 16.0516 19.6794C15.9875 19.3255 15.8188 18.9989 15.5673 18.7418L15.5018 18.6764C15.299 18.4737 15.138 18.2331 15.0282 17.9682C14.9184 17.7034 14.8619 17.4195 14.8619 17.1327C14.8619 16.846 14.9184 16.5621 15.0282 16.2972C15.138 16.0324 15.299 15.7917 15.5018 15.5891C15.7045 15.3862 15.9451 15.2253 16.2099 15.1155C16.4748 15.0057 16.7587 14.9492 17.0455 14.9492C17.3322 14.9492 17.6161 15.0057 17.881 15.1155C18.1458 15.2253 18.3865 15.3862 18.5891 15.5891L18.6545 15.6545C18.9117 15.906 19.2382 16.0747 19.5921 16.1389C19.946 16.2031 20.311 16.1598 20.64 16.0145H20.7273C21.0499 15.8763 21.3251 15.6466 21.5189 15.354C21.7128 15.0613 21.8168 14.7183 21.8182 14.3673V14.1818C21.8182 13.6032 22.0481 13.0482 22.4572 12.639C22.8664 12.2299 23.4213 12 24 12C24.5787 12 25.1336 12.2299 25.5428 12.639C25.9519 13.0482 26.1818 13.6032 26.1818 14.1818V14.28C26.1832 14.631 26.2872 14.974 26.4811 15.2667C26.6749 15.5594 26.9501 15.789 27.2727 15.9273C27.6018 16.0725 27.9668 16.1158 28.3206 16.0516C28.6745 15.9875 29.0011 15.8188 29.2582 15.5673L29.3236 15.5018C29.5263 15.299 29.7669 15.138 30.0318 15.0282C30.2966 14.9184 30.5805 14.8619 30.8673 14.8619C31.154 14.8619 31.4379 14.9184 31.7028 15.0282C31.9676 15.138 32.2083 15.299 32.4109 15.5018C32.6138 15.7045 32.7747 15.9451 32.8845 16.2099C32.9943 16.4748 33.0508 16.7587 33.0508 17.0455C33.0508 17.3322 32.9943 17.6161 32.8845 17.881C32.7747 18.1458 32.6138 18.3865 32.4109 18.5891L32.3455 18.6545C32.094 18.9117 31.9253 19.2382 31.8611 19.5921C31.7969 19.946 31.8402 20.311 31.9855 20.64V20.7273C32.1237 21.0499 32.3534 21.3251 32.646 21.5189C32.9387 21.7128 33.2817 21.8168 33.6327 21.8182H33.8182C34.3968 21.8182 34.9518 22.0481 35.361 22.4572C35.7701 22.8664 36 23.4213 36 24C36 24.5787 35.7701 25.1336 35.361 25.5428C34.9518 25.9519 34.3968 26.1818 33.8182 26.1818H33.72C33.369 26.1832 33.026 26.2872 32.7333 26.4811C32.4406 26.6749 32.211 26.9501 32.0727 27.2727V27.2727Z" stroke="white" stroke-width="2" stroke-linecap="round" stroke-linejoin="round"/>
</svg>
