<svg width="48" height="48" viewBox="0 0 48 48" fill="none" xmlns="http://www.w3.org/2000/svg">
<path opacity="0.7" d="M21 35C21.5523 35 22 34.5523 22 34C22 33.4477 21.5523 33 21 33C20.4477 33 20 33.4477 20 34C20 34.5523 20.4477 35 21 35Z" stroke="white" stroke-width="2" stroke-linecap="round" stroke-linejoin="round"/>
<path opacity="0.7" d="M33 35C33.5523 35 34 34.5523 34 34C34 33.4477 33.5523 33 33 33C32.4477 33 32 33.4477 32 34C32 34.5523 32.4477 35 33 35Z" stroke="white" stroke-width="2" stroke-linecap="round" stroke-linejoin="round"/>
<path d="M12 13H16.3636L19.2873 27.2823C19.387 27.7734 19.6603 28.2145 20.0591 28.5285C20.458 28.8424 20.9571 29.0092 21.4691 28.9996H32.0727C32.5847 29.0092 33.0838 28.8424 33.4827 28.5285C33.8816 28.2145 34.1548 27.7734 34.2545 27.2823L36 18.3332H17.4545" stroke="white" stroke-width="2" stroke-linecap="round" stroke-linejoin="round"/>
<circle cx="39" cy="9" r="4" fill="#FFED4F"/>
</svg>
