<svg width="368" height="219" viewBox="0 0 368 219" fill="none" xmlns="http://www.w3.org/2000/svg">
<ellipse cx="343.036" cy="23.9178" rx="2.02718" ry="2.40314" transform="rotate(-23.4045 343.036 23.9178)" fill="url(#paint0_linear_75_2519)"/>
<ellipse cx="342.911" cy="24.4605" rx="2.02718" ry="2.40314" transform="rotate(-23.4045 342.911 24.4605)" fill="url(#paint1_linear_75_2519)"/>
<ellipse cx="342.777" cy="24.9991" rx="2.02718" ry="2.40314" transform="rotate(-23.4045 342.777 24.9991)" fill="url(#paint2_linear_75_2519)"/>
<ellipse cx="342.632" cy="25.5328" rx="2.02718" ry="2.40314" transform="rotate(-23.4045 342.632 25.5328)" fill="url(#paint3_linear_75_2519)"/>
<ellipse cx="342.474" cy="26.0603" rx="2.02718" ry="2.40314" transform="rotate(-23.4045 342.474 26.0603)" fill="url(#paint4_linear_75_2519)"/>
<ellipse cx="342.304" cy="26.5813" rx="2.02718" ry="2.40314" transform="rotate(-23.4045 342.304 26.5813)" fill="url(#paint5_linear_75_2519)"/>
<ellipse cx="342.118" cy="27.0943" rx="2.02718" ry="2.40314" transform="rotate(-23.4045 342.118 27.0943)" fill="url(#paint6_linear_75_2519)"/>
<ellipse cx="341.917" cy="27.5982" rx="2.02718" ry="2.40314" transform="rotate(-23.4045 341.917 27.5982)" fill="url(#paint7_linear_75_2519)"/>
<ellipse cx="341.7" cy="28.0918" rx="2.02718" ry="2.40314" transform="rotate(-23.4045 341.7 28.0918)" fill="url(#paint8_linear_75_2519)"/>
<ellipse cx="341.467" cy="28.5743" rx="2.02718" ry="2.40314" transform="rotate(-23.4045 341.467 28.5743)" fill="url(#paint9_linear_75_2519)"/>
<ellipse cx="341.217" cy="29.045" rx="2.02718" ry="2.40314" transform="rotate(-23.4045 341.217 29.045)" fill="url(#paint10_linear_75_2519)"/>
<ellipse cx="340.951" cy="29.503" rx="2.02718" ry="2.40314" transform="rotate(-23.4045 340.951 29.503)" fill="url(#paint11_linear_75_2519)"/>
<ellipse cx="340.67" cy="29.9488" rx="2.02718" ry="2.40314" transform="rotate(-23.4045 340.67 29.9488)" fill="url(#paint12_linear_75_2519)"/>
<ellipse cx="340.376" cy="30.3821" rx="2.02718" ry="2.40314" transform="rotate(-23.4045 340.376 30.3821)" fill="url(#paint13_linear_75_2519)"/>
<ellipse cx="340.069" cy="30.8037" rx="2.02718" ry="2.40314" transform="rotate(-23.4045 340.069 30.8037)" fill="url(#paint14_linear_75_2519)"/>
<ellipse cx="339.75" cy="31.2141" rx="2.02718" ry="2.40314" transform="rotate(-23.4045 339.75 31.2141)" fill="url(#paint15_linear_75_2519)"/>
<ellipse cx="339.421" cy="31.6143" rx="2.02718" ry="2.40314" transform="rotate(-23.4045 339.421 31.6143)" fill="url(#paint16_linear_75_2519)"/>
<ellipse cx="339.084" cy="32.0054" rx="2.02718" ry="2.40314" transform="rotate(-23.4045 339.084 32.0054)" fill="url(#paint17_linear_75_2519)"/>
<ellipse cx="338.739" cy="32.388" rx="2.02718" ry="2.40314" transform="rotate(-23.4045 338.739 32.388)" fill="url(#paint18_linear_75_2519)"/>
<ellipse cx="338.388" cy="32.7635" rx="2.02718" ry="2.40314" transform="rotate(-23.4045 338.388 32.7635)" fill="url(#paint19_linear_75_2519)"/>
<ellipse cx="338.026" cy="33.1236" rx="2.02718" ry="2.40314" transform="rotate(-23.4045 338.026 33.1236)" fill="url(#paint20_linear_75_2519)"/>
<ellipse cx="337.645" cy="33.461" rx="2.02718" ry="2.40314" transform="rotate(-23.4045 337.645 33.461)" fill="url(#paint21_linear_75_2519)"/>
<ellipse cx="337.246" cy="33.7723" rx="2.02718" ry="2.40314" transform="rotate(-23.4045 337.246 33.7723)" fill="url(#paint22_linear_75_2519)"/>
<ellipse cx="336.828" cy="34.0547" rx="2.02718" ry="2.40314" transform="rotate(-23.4045 336.828 34.0547)" fill="url(#paint23_linear_75_2519)"/>
<ellipse cx="336.393" cy="34.3062" rx="2.02718" ry="2.40314" transform="rotate(-23.4045 336.393 34.3062)" fill="url(#paint24_linear_75_2519)"/>
<ellipse cx="335.941" cy="34.5252" rx="2.02718" ry="2.40314" transform="rotate(-23.4045 335.941 34.5252)" fill="url(#paint25_linear_75_2519)"/>
<ellipse cx="335.474" cy="34.7098" rx="2.02718" ry="2.40314" transform="rotate(-23.4045 335.474 34.7098)" fill="url(#paint26_linear_75_2519)"/>
<ellipse cx="334.994" cy="34.8594" rx="2.02718" ry="2.40314" transform="rotate(-23.4045 334.994 34.8594)" fill="url(#paint27_linear_75_2519)"/>
<ellipse cx="334.503" cy="34.9739" rx="2.02718" ry="2.40314" transform="rotate(-23.4045 334.503 34.9739)" fill="url(#paint28_linear_75_2519)"/>
<ellipse cx="334.003" cy="35.054" rx="2.02718" ry="2.40314" transform="rotate(-23.4045 334.003 35.054)" fill="url(#paint29_linear_75_2519)"/>
<ellipse cx="333.496" cy="35.1014" rx="2.02718" ry="2.40314" transform="rotate(-23.4045 333.496 35.1014)" fill="url(#paint30_linear_75_2519)"/>
<ellipse cx="332.984" cy="35.1172" rx="2.02718" ry="2.40314" transform="rotate(-23.4045 332.984 35.1172)" fill="url(#paint31_linear_75_2519)"/>
<ellipse cx="332.469" cy="35.1043" rx="2.02718" ry="2.40314" transform="rotate(-23.4045 332.469 35.1043)" fill="url(#paint32_linear_75_2519)"/>
<ellipse cx="331.952" cy="35.0647" rx="2.02718" ry="2.40314" transform="rotate(-23.4045 331.952 35.0647)" fill="url(#paint33_linear_75_2519)"/>
<ellipse cx="331.435" cy="35.001" rx="2.02718" ry="2.40314" transform="rotate(-23.4045 331.435 35.001)" fill="url(#paint34_linear_75_2519)"/>
<ellipse cx="330.917" cy="34.9158" rx="2.02718" ry="2.40314" transform="rotate(-23.4045 330.917 34.9158)" fill="url(#paint35_linear_75_2519)"/>
<ellipse cx="330.4" cy="34.8116" rx="2.02718" ry="2.40314" transform="rotate(-23.4045 330.4 34.8116)" fill="url(#paint36_linear_75_2519)"/>
<ellipse cx="329.884" cy="34.6905" rx="2.02718" ry="2.40314" transform="rotate(-23.4045 329.884 34.6905)" fill="url(#paint37_linear_75_2519)"/>
<ellipse cx="329.37" cy="34.5545" rx="2.02718" ry="2.40314" transform="rotate(-23.4045 329.37 34.5545)" fill="url(#paint38_linear_75_2519)"/>
<ellipse cx="328.857" cy="34.406" rx="2.02718" ry="2.40314" transform="rotate(-23.4045 328.857 34.406)" fill="url(#paint39_linear_75_2519)"/>
<ellipse cx="328.345" cy="34.2466" rx="2.02718" ry="2.40314" transform="rotate(-23.4045 328.345 34.2466)" fill="url(#paint40_linear_75_2519)"/>
<ellipse cx="327.835" cy="34.0782" rx="2.02718" ry="2.40314" transform="rotate(-23.4045 327.835 34.0782)" fill="url(#paint41_linear_75_2519)"/>
<ellipse cx="327.326" cy="33.9021" rx="2.02718" ry="2.40314" transform="rotate(-23.4045 327.326 33.9021)" fill="url(#paint42_linear_75_2519)"/>
<ellipse cx="326.818" cy="33.7203" rx="2.02718" ry="2.40314" transform="rotate(-23.4045 326.818 33.7203)" fill="url(#paint43_linear_75_2519)"/>
<ellipse cx="326.31" cy="33.5335" rx="2.02718" ry="2.40314" transform="rotate(-23.4045 326.31 33.5335)" fill="url(#paint44_linear_75_2519)"/>
<ellipse cx="325.804" cy="33.3438" rx="2.02718" ry="2.40314" transform="rotate(-23.4045 325.804 33.3438)" fill="url(#paint45_linear_75_2519)"/>
<ellipse cx="325.298" cy="33.1516" rx="2.02718" ry="2.40314" transform="rotate(-23.4045 325.298 33.1516)" fill="url(#paint46_linear_75_2519)"/>
<ellipse cx="324.792" cy="32.959" rx="2.02718" ry="2.40314" transform="rotate(-23.4045 324.792 32.959)" fill="url(#paint47_linear_75_2519)"/>
<ellipse cx="324.286" cy="32.7664" rx="2.02718" ry="2.40314" transform="rotate(-23.4045 324.286 32.7664)" fill="url(#paint48_linear_75_2519)"/>
<ellipse cx="323.78" cy="32.5755" rx="2.02718" ry="2.40314" transform="rotate(-23.4045 323.78 32.5755)" fill="url(#paint49_linear_75_2519)"/>
<ellipse cx="323.273" cy="32.3872" rx="2.02718" ry="2.40314" transform="rotate(-23.4045 323.273 32.3872)" fill="url(#paint50_linear_75_2519)"/>
<ellipse cx="322.765" cy="32.2027" rx="2.02718" ry="2.40314" transform="rotate(-23.4045 322.765 32.2027)" fill="url(#paint51_linear_75_2519)"/>
<ellipse cx="322.257" cy="32.023" rx="2.02718" ry="2.40314" transform="rotate(-23.4045 322.257 32.023)" fill="url(#paint52_linear_75_2519)"/>
<ellipse cx="321.747" cy="31.8496" rx="2.02718" ry="2.40314" transform="rotate(-23.4045 321.747 31.8496)" fill="url(#paint53_linear_75_2519)"/>
<ellipse cx="321.237" cy="31.6834" rx="2.02718" ry="2.40314" transform="rotate(-23.4045 321.237 31.6834)" fill="url(#paint54_linear_75_2519)"/>
<ellipse cx="320.725" cy="31.5259" rx="2.02718" ry="2.40314" transform="rotate(-23.4045 320.725 31.5259)" fill="url(#paint55_linear_75_2519)"/>
<ellipse cx="320.211" cy="31.3785" rx="2.02718" ry="2.40314" transform="rotate(-23.4045 320.211 31.3785)" fill="url(#paint56_linear_75_2519)"/>
<ellipse cx="319.697" cy="31.2422" rx="2.02718" ry="2.40314" transform="rotate(-23.4045 319.697 31.2422)" fill="url(#paint57_linear_75_2519)"/>
<ellipse cx="319.181" cy="31.1184" rx="2.02718" ry="2.40314" transform="rotate(-23.4045 319.181 31.1184)" fill="url(#paint58_linear_75_2519)"/>
<ellipse cx="318.665" cy="31.0088" rx="2.02718" ry="2.40314" transform="rotate(-23.4045 318.665 31.0088)" fill="url(#paint59_linear_75_2519)"/>
<ellipse cx="318.147" cy="30.9148" rx="2.02718" ry="2.40314" transform="rotate(-23.4045 318.147 30.9148)" fill="url(#paint60_linear_75_2519)"/>
<ellipse cx="317.629" cy="30.8379" rx="2.02718" ry="2.40314" transform="rotate(-23.4045 317.629 30.8379)" fill="url(#paint61_linear_75_2519)"/>
<ellipse cx="317.112" cy="30.7793" rx="2.02718" ry="2.40314" transform="rotate(-23.4045 317.112 30.7793)" fill="url(#paint62_linear_75_2519)"/>
<ellipse cx="316.595" cy="30.7408" rx="2.02718" ry="2.40314" transform="rotate(-23.4045 316.595 30.7408)" fill="url(#paint63_linear_75_2519)"/>
<ellipse cx="316.079" cy="30.7237" rx="2.02718" ry="2.40314" transform="rotate(-23.4045 316.079 30.7237)" fill="url(#paint64_linear_75_2519)"/>
<ellipse cx="315.566" cy="30.729" rx="2.02718" ry="2.40314" transform="rotate(-23.4045 315.566 30.729)" fill="url(#paint65_linear_75_2519)"/>
<ellipse cx="315.056" cy="30.7583" rx="2.02718" ry="2.40314" transform="rotate(-23.4045 315.056 30.7583)" fill="url(#paint66_linear_75_2519)"/>
<ellipse cx="314.551" cy="30.8125" rx="2.02718" ry="2.40314" transform="rotate(-23.4045 314.551 30.8125)" fill="url(#paint67_linear_75_2519)"/>
<ellipse cx="314.051" cy="30.8921" rx="2.02718" ry="2.40314" transform="rotate(-23.4045 314.051 30.8921)" fill="url(#paint68_linear_75_2519)"/>
<ellipse cx="313.557" cy="30.9974" rx="2.02718" ry="2.40314" transform="rotate(-23.4045 313.557 30.9974)" fill="url(#paint69_linear_75_2519)"/>
<ellipse cx="313.071" cy="31.1292" rx="2.02718" ry="2.40314" transform="rotate(-23.4045 313.071 31.1292)" fill="url(#paint70_linear_75_2519)"/>
<ellipse cx="312.594" cy="31.2867" rx="2.02718" ry="2.40314" transform="rotate(-23.4045 312.594 31.2867)" fill="url(#paint71_linear_75_2519)"/>
<ellipse cx="312.126" cy="31.47" rx="2.02718" ry="2.40314" transform="rotate(-23.4045 312.126 31.47)" fill="url(#paint72_linear_75_2519)"/>
<ellipse cx="311.67" cy="31.678" rx="2.02718" ry="2.40314" transform="rotate(-23.4045 311.67 31.678)" fill="url(#paint73_linear_75_2519)"/>
<ellipse cx="311.224" cy="31.9104" rx="2.02718" ry="2.40314" transform="rotate(-23.4045 311.224 31.9104)" fill="url(#paint74_linear_75_2519)"/>
<ellipse cx="310.79" cy="32.1653" rx="2.02718" ry="2.40314" transform="rotate(-23.4045 310.79 32.1653)" fill="url(#paint75_linear_75_2519)"/>
<ellipse cx="310.367" cy="32.4385" rx="2.02718" ry="2.40314" transform="rotate(-23.4045 310.367 32.4385)" fill="url(#paint76_linear_75_2519)"/>
<ellipse cx="309.955" cy="32.7305" rx="2.02718" ry="2.40314" transform="rotate(-23.4045 309.955 32.7305)" fill="url(#paint77_linear_75_2519)"/>
<ellipse cx="309.556" cy="33.042" rx="2.02718" ry="2.40314" transform="rotate(-23.4045 309.556 33.042)" fill="url(#paint78_linear_75_2519)"/>
<ellipse cx="309.172" cy="33.375" rx="2.02718" ry="2.40314" transform="rotate(-23.4045 309.172 33.375)" fill="url(#paint79_linear_75_2519)"/>
<ellipse cx="308.805" cy="33.7308" rx="2.02718" ry="2.40314" transform="rotate(-23.4045 308.805 33.7308)" fill="url(#paint80_linear_75_2519)"/>
<ellipse cx="308.458" cy="34.1104" rx="2.02718" ry="2.40314" transform="rotate(-23.4045 308.458 34.1104)" fill="url(#paint81_linear_75_2519)"/>
<ellipse cx="308.133" cy="34.5147" rx="2.02718" ry="2.40314" transform="rotate(-23.4045 308.133 34.5147)" fill="url(#paint82_linear_75_2519)"/>
<ellipse cx="307.835" cy="34.9446" rx="2.02718" ry="2.40314" transform="rotate(-23.4045 307.835 34.9446)" fill="url(#paint83_linear_75_2519)"/>
<ellipse cx="307.566" cy="35.3997" rx="2.02718" ry="2.40314" transform="rotate(-23.4045 307.566 35.3997)" fill="url(#paint84_linear_75_2519)"/>
<ellipse cx="307.328" cy="35.8794" rx="2.02718" ry="2.40314" transform="rotate(-23.4045 307.328 35.8794)" fill="url(#paint85_linear_75_2519)"/>
<ellipse cx="307.126" cy="36.3824" rx="2.02718" ry="2.40314" transform="rotate(-23.4045 307.126 36.3824)" fill="url(#paint86_linear_75_2519)"/>
<ellipse cx="306.96" cy="36.906" rx="2.02718" ry="2.40314" transform="rotate(-23.4045 306.96 36.906)" fill="url(#paint87_linear_75_2519)"/>
<ellipse cx="306.833" cy="37.4475" rx="2.02718" ry="2.40314" transform="rotate(-23.4045 306.833 37.4475)" fill="url(#paint88_linear_75_2519)"/>
<ellipse cx="306.744" cy="38.0035" rx="2.02718" ry="2.40314" transform="rotate(-23.4045 306.744 38.0035)" fill="url(#paint89_linear_75_2519)"/>
<ellipse cx="306.693" cy="38.5701" rx="2.02718" ry="2.40314" transform="rotate(-23.4045 306.693 38.5701)" fill="url(#paint90_linear_75_2519)"/>
<ellipse cx="306.678" cy="39.1446" rx="2.02718" ry="2.40314" transform="rotate(-23.4045 306.678 39.1446)" fill="url(#paint91_linear_75_2519)"/>
<ellipse cx="306.697" cy="39.7237" rx="2.02718" ry="2.40314" transform="rotate(-23.4045 306.697 39.7237)" fill="url(#paint92_linear_75_2519)"/>
<ellipse cx="306.747" cy="40.3045" rx="2.02718" ry="2.40314" transform="rotate(-23.4045 306.747 40.3045)" fill="url(#paint93_linear_75_2519)"/>
<ellipse cx="306.827" cy="40.8855" rx="2.02718" ry="2.40314" transform="rotate(-23.4045 306.827 40.8855)" fill="url(#paint94_linear_75_2519)"/>
<ellipse cx="306.933" cy="41.4646" rx="2.02718" ry="2.40314" transform="rotate(-23.4045 306.933 41.4646)" fill="url(#paint95_linear_75_2519)"/>
<ellipse cx="307.063" cy="42.0408" rx="2.02718" ry="2.40314" transform="rotate(-23.4045 307.063 42.0408)" fill="url(#paint96_linear_75_2519)"/>
<ellipse cx="307.214" cy="42.6136" rx="2.02718" ry="2.40314" transform="rotate(-23.4045 307.214 42.6136)" fill="url(#paint97_linear_75_2519)"/>
<ellipse cx="307.384" cy="43.1824" rx="2.02718" ry="2.40314" transform="rotate(-23.4045 307.384 43.1824)" fill="url(#paint98_linear_75_2519)"/>
<ellipse cx="307.572" cy="43.7478" rx="2.02718" ry="2.40314" transform="rotate(-23.4045 307.572 43.7478)" fill="url(#paint99_linear_75_2519)"/>
<path d="M24 191.761L30.3628 193.016C31.4465 193.229 32.4982 192.524 32.7119 191.44L33.5794 187.04C33.793 185.956 34.8447 185.251 35.9284 185.464L40.329 186.332C41.4127 186.545 42.4644 185.84 42.6781 184.756L43.5456 180.356C43.7592 179.272 44.8109 178.567 45.8947 178.78L50.2952 179.648C51.379 179.861 52.4307 179.156 52.6443 178.072L53.5118 173.672C53.7255 172.588 54.7772 171.883 55.8609 172.096L60.2615 172.964C61.3452 173.178 62.3969 172.472 62.6105 171.389L63.478 166.988C63.6917 165.904 64.7434 165.199 65.8271 165.413L70.2277 166.28C71.3114 166.494 72.3631 165.788 72.5768 164.705L73.4443 160.304C73.6579 159.22 74.7096 158.515 75.7933 158.729L82.1562 159.983" stroke="#FFED4F" stroke-width="2"/>
<circle cx="282.5" cy="2.5" r="2.5" fill="#0F9D2E"/>
<circle r="2.5" transform="matrix(-1 0 0 1 106.5 2.5)" fill="#FFED4F"/>
<circle r="2.5" transform="matrix(1 0 0 -1 288.5 216.5)" fill="#E12451"/>
<circle r="2.5" transform="matrix(0.998332 0.0577369 0.0577369 -0.998332 95.3982 192.64)" fill="#5024E1"/>
<circle r="2.5" transform="matrix(0.998332 0.0577369 0.0577369 -0.998332 15.6402 149.64)" fill="#E12451"/>
<circle cx="354.5" cy="72.5" r="2.5" fill="#E12451"/>
<circle r="2.5" transform="matrix(-1 0 0 1 2.5 41.5)" fill="#0F9D2E"/>
<circle r="2.5" transform="matrix(1 0 0 -1 364.5 144.5)" fill="#5024E1"/>
<rect width="3.72411" height="33.9621" rx="1.86206" transform="matrix(0.638264 -0.769817 -0.769817 -0.638264 87.1445 38.5437)" fill="#5024E1"/>
<rect width="2.30138" height="13.0748" rx="1.15069" transform="matrix(-0.0685033 -0.997651 -0.997651 0.0685033 53.2018 53.2959)" fill="#E12451"/>
<circle cx="305" cy="172" r="6" fill="#0F9D2E"/>
<path d="M357.254 183.323C358.756 182.902 360.14 184.286 359.719 185.788L356.65 196.749C356.238 198.222 354.391 198.705 353.31 197.624L345.418 189.732C344.336 188.65 344.82 186.804 346.293 186.392L357.254 183.323Z" fill="#FFED4F"/>
<circle cx="192.5" cy="111" r="60" fill="#F6F4FE"/>
<path d="M208.5 100.5L186.5 122.5L176.5 112.5" stroke="#5024E1" stroke-width="6" stroke-linecap="round" stroke-linejoin="round"/>
<defs>
<linearGradient id="paint0_linear_75_2519" x1="341.009" y1="21.5146" x2="345.746" y2="25.511" gradientUnits="userSpaceOnUse">
<stop stop-color="#8753F4"/>
<stop offset="1" stop-color="#5A25CA"/>
</linearGradient>
<linearGradient id="paint1_linear_75_2519" x1="340.884" y1="22.0573" x2="345.622" y2="26.0537" gradientUnits="userSpaceOnUse">
<stop stop-color="#8753F4"/>
<stop offset="1" stop-color="#5A25CA"/>
</linearGradient>
<linearGradient id="paint2_linear_75_2519" x1="340.75" y1="22.5959" x2="345.487" y2="26.5923" gradientUnits="userSpaceOnUse">
<stop stop-color="#8753F4"/>
<stop offset="1" stop-color="#5A25CA"/>
</linearGradient>
<linearGradient id="paint3_linear_75_2519" x1="340.604" y1="23.1296" x2="345.342" y2="27.126" gradientUnits="userSpaceOnUse">
<stop stop-color="#8753F4"/>
<stop offset="1" stop-color="#5A25CA"/>
</linearGradient>
<linearGradient id="paint4_linear_75_2519" x1="340.447" y1="23.6572" x2="345.185" y2="27.6536" gradientUnits="userSpaceOnUse">
<stop stop-color="#8753F4"/>
<stop offset="1" stop-color="#5A25CA"/>
</linearGradient>
<linearGradient id="paint5_linear_75_2519" x1="340.276" y1="24.1782" x2="345.014" y2="28.1746" gradientUnits="userSpaceOnUse">
<stop stop-color="#8753F4"/>
<stop offset="1" stop-color="#5A25CA"/>
</linearGradient>
<linearGradient id="paint6_linear_75_2519" x1="340.091" y1="24.6911" x2="344.829" y2="28.6875" gradientUnits="userSpaceOnUse">
<stop stop-color="#8753F4"/>
<stop offset="1" stop-color="#5A25CA"/>
</linearGradient>
<linearGradient id="paint7_linear_75_2519" x1="339.89" y1="25.195" x2="344.628" y2="29.1914" gradientUnits="userSpaceOnUse">
<stop stop-color="#8753F4"/>
<stop offset="1" stop-color="#5A25CA"/>
</linearGradient>
<linearGradient id="paint8_linear_75_2519" x1="339.673" y1="25.6887" x2="344.411" y2="29.6851" gradientUnits="userSpaceOnUse">
<stop stop-color="#8753F4"/>
<stop offset="1" stop-color="#5A25CA"/>
</linearGradient>
<linearGradient id="paint9_linear_75_2519" x1="339.44" y1="26.1711" x2="344.177" y2="30.1675" gradientUnits="userSpaceOnUse">
<stop stop-color="#8753F4"/>
<stop offset="1" stop-color="#5A25CA"/>
</linearGradient>
<linearGradient id="paint10_linear_75_2519" x1="339.19" y1="26.6418" x2="343.927" y2="30.6382" gradientUnits="userSpaceOnUse">
<stop stop-color="#8753F4"/>
<stop offset="1" stop-color="#5A25CA"/>
</linearGradient>
<linearGradient id="paint11_linear_75_2519" x1="338.924" y1="27.0998" x2="343.662" y2="31.0962" gradientUnits="userSpaceOnUse">
<stop stop-color="#8753F4"/>
<stop offset="1" stop-color="#5A25CA"/>
</linearGradient>
<linearGradient id="paint12_linear_75_2519" x1="338.643" y1="27.5456" x2="343.381" y2="31.542" gradientUnits="userSpaceOnUse">
<stop stop-color="#8753F4"/>
<stop offset="1" stop-color="#5A25CA"/>
</linearGradient>
<linearGradient id="paint13_linear_75_2519" x1="338.349" y1="27.979" x2="343.086" y2="31.9753" gradientUnits="userSpaceOnUse">
<stop stop-color="#8753F4"/>
<stop offset="1" stop-color="#5A25CA"/>
</linearGradient>
<linearGradient id="paint14_linear_75_2519" x1="338.041" y1="28.4006" x2="342.779" y2="32.397" gradientUnits="userSpaceOnUse">
<stop stop-color="#8753F4"/>
<stop offset="1" stop-color="#5A25CA"/>
</linearGradient>
<linearGradient id="paint15_linear_75_2519" x1="337.723" y1="28.811" x2="342.46" y2="32.8074" gradientUnits="userSpaceOnUse">
<stop stop-color="#8753F4"/>
<stop offset="1" stop-color="#5A25CA"/>
</linearGradient>
<linearGradient id="paint16_linear_75_2519" x1="337.394" y1="29.2112" x2="342.132" y2="33.2075" gradientUnits="userSpaceOnUse">
<stop stop-color="#8753F4"/>
<stop offset="1" stop-color="#5A25CA"/>
</linearGradient>
<linearGradient id="paint17_linear_75_2519" x1="337.057" y1="29.6023" x2="341.794" y2="33.5986" gradientUnits="userSpaceOnUse">
<stop stop-color="#8753F4"/>
<stop offset="1" stop-color="#5A25CA"/>
</linearGradient>
<linearGradient id="paint18_linear_75_2519" x1="336.712" y1="29.9848" x2="341.45" y2="33.9812" gradientUnits="userSpaceOnUse">
<stop stop-color="#8753F4"/>
<stop offset="1" stop-color="#5A25CA"/>
</linearGradient>
<linearGradient id="paint19_linear_75_2519" x1="336.361" y1="30.3603" x2="341.099" y2="34.3567" gradientUnits="userSpaceOnUse">
<stop stop-color="#8753F4"/>
<stop offset="1" stop-color="#5A25CA"/>
</linearGradient>
<linearGradient id="paint20_linear_75_2519" x1="335.999" y1="30.7204" x2="340.737" y2="34.7168" gradientUnits="userSpaceOnUse">
<stop stop-color="#8753F4"/>
<stop offset="1" stop-color="#5A25CA"/>
</linearGradient>
<linearGradient id="paint21_linear_75_2519" x1="335.618" y1="31.0578" x2="340.356" y2="35.0542" gradientUnits="userSpaceOnUse">
<stop stop-color="#8753F4"/>
<stop offset="1" stop-color="#5A25CA"/>
</linearGradient>
<linearGradient id="paint22_linear_75_2519" x1="335.219" y1="31.3691" x2="339.956" y2="35.3655" gradientUnits="userSpaceOnUse">
<stop stop-color="#8753F4"/>
<stop offset="1" stop-color="#5A25CA"/>
</linearGradient>
<linearGradient id="paint23_linear_75_2519" x1="334.801" y1="31.6516" x2="339.539" y2="35.648" gradientUnits="userSpaceOnUse">
<stop stop-color="#8753F4"/>
<stop offset="1" stop-color="#5A25CA"/>
</linearGradient>
<linearGradient id="paint24_linear_75_2519" x1="334.366" y1="31.903" x2="339.103" y2="35.8994" gradientUnits="userSpaceOnUse">
<stop stop-color="#8753F4"/>
<stop offset="1" stop-color="#5A25CA"/>
</linearGradient>
<linearGradient id="paint25_linear_75_2519" x1="333.914" y1="32.122" x2="338.651" y2="36.1184" gradientUnits="userSpaceOnUse">
<stop stop-color="#8753F4"/>
<stop offset="1" stop-color="#5A25CA"/>
</linearGradient>
<linearGradient id="paint26_linear_75_2519" x1="333.447" y1="32.3066" x2="338.185" y2="36.303" gradientUnits="userSpaceOnUse">
<stop stop-color="#8753F4"/>
<stop offset="1" stop-color="#5A25CA"/>
</linearGradient>
<linearGradient id="paint27_linear_75_2519" x1="332.967" y1="32.4563" x2="337.705" y2="36.4526" gradientUnits="userSpaceOnUse">
<stop stop-color="#8753F4"/>
<stop offset="1" stop-color="#5A25CA"/>
</linearGradient>
<linearGradient id="paint28_linear_75_2519" x1="332.476" y1="32.5708" x2="337.214" y2="36.5671" gradientUnits="userSpaceOnUse">
<stop stop-color="#8753F4"/>
<stop offset="1" stop-color="#5A25CA"/>
</linearGradient>
<linearGradient id="paint29_linear_75_2519" x1="331.976" y1="32.6508" x2="336.713" y2="36.6472" gradientUnits="userSpaceOnUse">
<stop stop-color="#8753F4"/>
<stop offset="1" stop-color="#5A25CA"/>
</linearGradient>
<linearGradient id="paint30_linear_75_2519" x1="331.469" y1="32.6982" x2="336.207" y2="36.6946" gradientUnits="userSpaceOnUse">
<stop stop-color="#8753F4"/>
<stop offset="1" stop-color="#5A25CA"/>
</linearGradient>
<linearGradient id="paint31_linear_75_2519" x1="330.957" y1="32.7141" x2="335.695" y2="36.7105" gradientUnits="userSpaceOnUse">
<stop stop-color="#8753F4"/>
<stop offset="1" stop-color="#5A25CA"/>
</linearGradient>
<linearGradient id="paint32_linear_75_2519" x1="330.442" y1="32.7011" x2="335.18" y2="36.6975" gradientUnits="userSpaceOnUse">
<stop stop-color="#8753F4"/>
<stop offset="1" stop-color="#5A25CA"/>
</linearGradient>
<linearGradient id="paint33_linear_75_2519" x1="329.925" y1="32.6616" x2="334.663" y2="36.658" gradientUnits="userSpaceOnUse">
<stop stop-color="#8753F4"/>
<stop offset="1" stop-color="#5A25CA"/>
</linearGradient>
<linearGradient id="paint34_linear_75_2519" x1="329.408" y1="32.5979" x2="334.145" y2="36.5942" gradientUnits="userSpaceOnUse">
<stop stop-color="#8753F4"/>
<stop offset="1" stop-color="#5A25CA"/>
</linearGradient>
<linearGradient id="paint35_linear_75_2519" x1="328.89" y1="32.5127" x2="333.628" y2="36.509" gradientUnits="userSpaceOnUse">
<stop stop-color="#8753F4"/>
<stop offset="1" stop-color="#5A25CA"/>
</linearGradient>
<linearGradient id="paint36_linear_75_2519" x1="328.373" y1="32.4084" x2="333.11" y2="36.4048" gradientUnits="userSpaceOnUse">
<stop stop-color="#8753F4"/>
<stop offset="1" stop-color="#5A25CA"/>
</linearGradient>
<linearGradient id="paint37_linear_75_2519" x1="327.857" y1="32.2873" x2="332.595" y2="36.2837" gradientUnits="userSpaceOnUse">
<stop stop-color="#8753F4"/>
<stop offset="1" stop-color="#5A25CA"/>
</linearGradient>
<linearGradient id="paint38_linear_75_2519" x1="327.343" y1="32.1513" x2="332.08" y2="36.1477" gradientUnits="userSpaceOnUse">
<stop stop-color="#8753F4"/>
<stop offset="1" stop-color="#5A25CA"/>
</linearGradient>
<linearGradient id="paint39_linear_75_2519" x1="326.83" y1="32.0029" x2="331.567" y2="35.9993" gradientUnits="userSpaceOnUse">
<stop stop-color="#8753F4"/>
<stop offset="1" stop-color="#5A25CA"/>
</linearGradient>
<linearGradient id="paint40_linear_75_2519" x1="326.318" y1="31.8435" x2="331.055" y2="35.8399" gradientUnits="userSpaceOnUse">
<stop stop-color="#8753F4"/>
<stop offset="1" stop-color="#5A25CA"/>
</linearGradient>
<linearGradient id="paint41_linear_75_2519" x1="325.807" y1="31.675" x2="330.545" y2="35.6714" gradientUnits="userSpaceOnUse">
<stop stop-color="#8753F4"/>
<stop offset="1" stop-color="#5A25CA"/>
</linearGradient>
<linearGradient id="paint42_linear_75_2519" x1="325.299" y1="31.499" x2="330.036" y2="35.4954" gradientUnits="userSpaceOnUse">
<stop stop-color="#8753F4"/>
<stop offset="1" stop-color="#5A25CA"/>
</linearGradient>
<linearGradient id="paint43_linear_75_2519" x1="324.79" y1="31.3171" x2="329.528" y2="35.3135" gradientUnits="userSpaceOnUse">
<stop stop-color="#8753F4"/>
<stop offset="1" stop-color="#5A25CA"/>
</linearGradient>
<linearGradient id="paint44_linear_75_2519" x1="324.283" y1="31.1303" x2="329.021" y2="35.1267" gradientUnits="userSpaceOnUse">
<stop stop-color="#8753F4"/>
<stop offset="1" stop-color="#5A25CA"/>
</linearGradient>
<linearGradient id="paint45_linear_75_2519" x1="323.777" y1="30.9406" x2="328.514" y2="34.937" gradientUnits="userSpaceOnUse">
<stop stop-color="#8753F4"/>
<stop offset="1" stop-color="#5A25CA"/>
</linearGradient>
<linearGradient id="paint46_linear_75_2519" x1="323.271" y1="30.7485" x2="328.008" y2="34.7449" gradientUnits="userSpaceOnUse">
<stop stop-color="#8753F4"/>
<stop offset="1" stop-color="#5A25CA"/>
</linearGradient>
<linearGradient id="paint47_linear_75_2519" x1="322.765" y1="30.5559" x2="327.502" y2="34.5523" gradientUnits="userSpaceOnUse">
<stop stop-color="#8753F4"/>
<stop offset="1" stop-color="#5A25CA"/>
</linearGradient>
<linearGradient id="paint48_linear_75_2519" x1="322.259" y1="30.3633" x2="326.996" y2="34.3596" gradientUnits="userSpaceOnUse">
<stop stop-color="#8753F4"/>
<stop offset="1" stop-color="#5A25CA"/>
</linearGradient>
<linearGradient id="paint49_linear_75_2519" x1="321.752" y1="30.1723" x2="326.49" y2="34.1687" gradientUnits="userSpaceOnUse">
<stop stop-color="#8753F4"/>
<stop offset="1" stop-color="#5A25CA"/>
</linearGradient>
<linearGradient id="paint50_linear_75_2519" x1="321.246" y1="29.9841" x2="325.983" y2="33.9805" gradientUnits="userSpaceOnUse">
<stop stop-color="#8753F4"/>
<stop offset="1" stop-color="#5A25CA"/>
</linearGradient>
<linearGradient id="paint51_linear_75_2519" x1="320.738" y1="29.7995" x2="325.476" y2="33.7959" gradientUnits="userSpaceOnUse">
<stop stop-color="#8753F4"/>
<stop offset="1" stop-color="#5A25CA"/>
</linearGradient>
<linearGradient id="paint52_linear_75_2519" x1="320.23" y1="29.6198" x2="324.967" y2="33.6162" gradientUnits="userSpaceOnUse">
<stop stop-color="#8753F4"/>
<stop offset="1" stop-color="#5A25CA"/>
</linearGradient>
<linearGradient id="paint53_linear_75_2519" x1="319.72" y1="29.4465" x2="324.458" y2="33.4429" gradientUnits="userSpaceOnUse">
<stop stop-color="#8753F4"/>
<stop offset="1" stop-color="#5A25CA"/>
</linearGradient>
<linearGradient id="paint54_linear_75_2519" x1="319.21" y1="29.2802" x2="323.947" y2="33.2766" gradientUnits="userSpaceOnUse">
<stop stop-color="#8753F4"/>
<stop offset="1" stop-color="#5A25CA"/>
</linearGradient>
<linearGradient id="paint55_linear_75_2519" x1="318.697" y1="29.1228" x2="323.435" y2="33.1191" gradientUnits="userSpaceOnUse">
<stop stop-color="#8753F4"/>
<stop offset="1" stop-color="#5A25CA"/>
</linearGradient>
<linearGradient id="paint56_linear_75_2519" x1="318.184" y1="28.9753" x2="322.922" y2="32.9717" gradientUnits="userSpaceOnUse">
<stop stop-color="#8753F4"/>
<stop offset="1" stop-color="#5A25CA"/>
</linearGradient>
<linearGradient id="paint57_linear_75_2519" x1="317.67" y1="28.8391" x2="322.407" y2="32.8355" gradientUnits="userSpaceOnUse">
<stop stop-color="#8753F4"/>
<stop offset="1" stop-color="#5A25CA"/>
</linearGradient>
<linearGradient id="paint58_linear_75_2519" x1="317.154" y1="28.7153" x2="321.892" y2="32.7117" gradientUnits="userSpaceOnUse">
<stop stop-color="#8753F4"/>
<stop offset="1" stop-color="#5A25CA"/>
</linearGradient>
<linearGradient id="paint59_linear_75_2519" x1="316.638" y1="28.6057" x2="321.375" y2="32.6021" gradientUnits="userSpaceOnUse">
<stop stop-color="#8753F4"/>
<stop offset="1" stop-color="#5A25CA"/>
</linearGradient>
<linearGradient id="paint60_linear_75_2519" x1="316.12" y1="28.5117" x2="320.858" y2="32.5081" gradientUnits="userSpaceOnUse">
<stop stop-color="#8753F4"/>
<stop offset="1" stop-color="#5A25CA"/>
</linearGradient>
<linearGradient id="paint61_linear_75_2519" x1="315.602" y1="28.4348" x2="320.34" y2="32.4312" gradientUnits="userSpaceOnUse">
<stop stop-color="#8753F4"/>
<stop offset="1" stop-color="#5A25CA"/>
</linearGradient>
<linearGradient id="paint62_linear_75_2519" x1="315.085" y1="28.3762" x2="319.822" y2="32.3726" gradientUnits="userSpaceOnUse">
<stop stop-color="#8753F4"/>
<stop offset="1" stop-color="#5A25CA"/>
</linearGradient>
<linearGradient id="paint63_linear_75_2519" x1="314.568" y1="28.3376" x2="319.305" y2="32.334" gradientUnits="userSpaceOnUse">
<stop stop-color="#8753F4"/>
<stop offset="1" stop-color="#5A25CA"/>
</linearGradient>
<linearGradient id="paint64_linear_75_2519" x1="314.052" y1="28.3205" x2="318.79" y2="32.3169" gradientUnits="userSpaceOnUse">
<stop stop-color="#8753F4"/>
<stop offset="1" stop-color="#5A25CA"/>
</linearGradient>
<linearGradient id="paint65_linear_75_2519" x1="313.539" y1="28.3259" x2="318.277" y2="32.3223" gradientUnits="userSpaceOnUse">
<stop stop-color="#8753F4"/>
<stop offset="1" stop-color="#5A25CA"/>
</linearGradient>
<linearGradient id="paint66_linear_75_2519" x1="313.029" y1="28.3552" x2="317.767" y2="32.3516" gradientUnits="userSpaceOnUse">
<stop stop-color="#8753F4"/>
<stop offset="1" stop-color="#5A25CA"/>
</linearGradient>
<linearGradient id="paint67_linear_75_2519" x1="312.524" y1="28.4094" x2="317.261" y2="32.4058" gradientUnits="userSpaceOnUse">
<stop stop-color="#8753F4"/>
<stop offset="1" stop-color="#5A25CA"/>
</linearGradient>
<linearGradient id="paint68_linear_75_2519" x1="312.023" y1="28.489" x2="316.761" y2="32.4854" gradientUnits="userSpaceOnUse">
<stop stop-color="#8753F4"/>
<stop offset="1" stop-color="#5A25CA"/>
</linearGradient>
<linearGradient id="paint69_linear_75_2519" x1="311.53" y1="28.5942" x2="316.268" y2="32.5906" gradientUnits="userSpaceOnUse">
<stop stop-color="#8753F4"/>
<stop offset="1" stop-color="#5A25CA"/>
</linearGradient>
<linearGradient id="paint70_linear_75_2519" x1="311.044" y1="28.726" x2="315.781" y2="32.7224" gradientUnits="userSpaceOnUse">
<stop stop-color="#8753F4"/>
<stop offset="1" stop-color="#5A25CA"/>
</linearGradient>
<linearGradient id="paint71_linear_75_2519" x1="310.567" y1="28.8835" x2="315.304" y2="32.8799" gradientUnits="userSpaceOnUse">
<stop stop-color="#8753F4"/>
<stop offset="1" stop-color="#5A25CA"/>
</linearGradient>
<linearGradient id="paint72_linear_75_2519" x1="310.099" y1="29.0669" x2="314.837" y2="33.0632" gradientUnits="userSpaceOnUse">
<stop stop-color="#8753F4"/>
<stop offset="1" stop-color="#5A25CA"/>
</linearGradient>
<linearGradient id="paint73_linear_75_2519" x1="309.643" y1="29.2749" x2="314.38" y2="33.2712" gradientUnits="userSpaceOnUse">
<stop stop-color="#8753F4"/>
<stop offset="1" stop-color="#5A25CA"/>
</linearGradient>
<linearGradient id="paint74_linear_75_2519" x1="309.197" y1="29.5073" x2="313.934" y2="33.5037" gradientUnits="userSpaceOnUse">
<stop stop-color="#8753F4"/>
<stop offset="1" stop-color="#5A25CA"/>
</linearGradient>
<linearGradient id="paint75_linear_75_2519" x1="308.763" y1="29.7622" x2="313.5" y2="33.7586" gradientUnits="userSpaceOnUse">
<stop stop-color="#8753F4"/>
<stop offset="1" stop-color="#5A25CA"/>
</linearGradient>
<linearGradient id="paint76_linear_75_2519" x1="308.34" y1="30.0354" x2="313.077" y2="34.0317" gradientUnits="userSpaceOnUse">
<stop stop-color="#8753F4"/>
<stop offset="1" stop-color="#5A25CA"/>
</linearGradient>
<linearGradient id="paint77_linear_75_2519" x1="307.928" y1="30.3274" x2="312.665" y2="34.3237" gradientUnits="userSpaceOnUse">
<stop stop-color="#8753F4"/>
<stop offset="1" stop-color="#5A25CA"/>
</linearGradient>
<linearGradient id="paint78_linear_75_2519" x1="307.529" y1="30.6389" x2="312.266" y2="34.6353" gradientUnits="userSpaceOnUse">
<stop stop-color="#8753F4"/>
<stop offset="1" stop-color="#5A25CA"/>
</linearGradient>
<linearGradient id="paint79_linear_75_2519" x1="307.145" y1="30.9719" x2="311.882" y2="34.9683" gradientUnits="userSpaceOnUse">
<stop stop-color="#8753F4"/>
<stop offset="1" stop-color="#5A25CA"/>
</linearGradient>
<linearGradient id="paint80_linear_75_2519" x1="306.778" y1="31.3276" x2="311.515" y2="35.324" gradientUnits="userSpaceOnUse">
<stop stop-color="#8753F4"/>
<stop offset="1" stop-color="#5A25CA"/>
</linearGradient>
<linearGradient id="paint81_linear_75_2519" x1="306.431" y1="31.7072" x2="311.168" y2="35.7036" gradientUnits="userSpaceOnUse">
<stop stop-color="#8753F4"/>
<stop offset="1" stop-color="#5A25CA"/>
</linearGradient>
<linearGradient id="paint82_linear_75_2519" x1="306.106" y1="32.1115" x2="310.844" y2="36.1079" gradientUnits="userSpaceOnUse">
<stop stop-color="#8753F4"/>
<stop offset="1" stop-color="#5A25CA"/>
</linearGradient>
<linearGradient id="paint83_linear_75_2519" x1="305.808" y1="32.5415" x2="310.545" y2="36.5378" gradientUnits="userSpaceOnUse">
<stop stop-color="#8753F4"/>
<stop offset="1" stop-color="#5A25CA"/>
</linearGradient>
<linearGradient id="paint84_linear_75_2519" x1="305.539" y1="32.9966" x2="310.276" y2="36.9929" gradientUnits="userSpaceOnUse">
<stop stop-color="#8753F4"/>
<stop offset="1" stop-color="#5A25CA"/>
</linearGradient>
<linearGradient id="paint85_linear_75_2519" x1="305.301" y1="33.4763" x2="310.039" y2="37.4727" gradientUnits="userSpaceOnUse">
<stop stop-color="#8753F4"/>
<stop offset="1" stop-color="#5A25CA"/>
</linearGradient>
<linearGradient id="paint86_linear_75_2519" x1="305.099" y1="33.9792" x2="309.836" y2="37.9756" gradientUnits="userSpaceOnUse">
<stop stop-color="#8753F4"/>
<stop offset="1" stop-color="#5A25CA"/>
</linearGradient>
<linearGradient id="paint87_linear_75_2519" x1="304.933" y1="34.5029" x2="309.671" y2="38.4993" gradientUnits="userSpaceOnUse">
<stop stop-color="#8753F4"/>
<stop offset="1" stop-color="#5A25CA"/>
</linearGradient>
<linearGradient id="paint88_linear_75_2519" x1="304.806" y1="35.0444" x2="309.543" y2="39.0408" gradientUnits="userSpaceOnUse">
<stop stop-color="#8753F4"/>
<stop offset="1" stop-color="#5A25CA"/>
</linearGradient>
<linearGradient id="paint89_linear_75_2519" x1="304.717" y1="35.6003" x2="309.454" y2="39.5967" gradientUnits="userSpaceOnUse">
<stop stop-color="#8753F4"/>
<stop offset="1" stop-color="#5A25CA"/>
</linearGradient>
<linearGradient id="paint90_linear_75_2519" x1="304.665" y1="36.167" x2="309.403" y2="40.1633" gradientUnits="userSpaceOnUse">
<stop stop-color="#8753F4"/>
<stop offset="1" stop-color="#5A25CA"/>
</linearGradient>
<linearGradient id="paint91_linear_75_2519" x1="304.65" y1="36.7414" x2="309.388" y2="40.7378" gradientUnits="userSpaceOnUse">
<stop stop-color="#8753F4"/>
<stop offset="1" stop-color="#5A25CA"/>
</linearGradient>
<linearGradient id="paint92_linear_75_2519" x1="304.669" y1="37.3205" x2="309.407" y2="41.3169" gradientUnits="userSpaceOnUse">
<stop stop-color="#8753F4"/>
<stop offset="1" stop-color="#5A25CA"/>
</linearGradient>
<linearGradient id="paint93_linear_75_2519" x1="304.72" y1="37.9013" x2="309.458" y2="41.8977" gradientUnits="userSpaceOnUse">
<stop stop-color="#8753F4"/>
<stop offset="1" stop-color="#5A25CA"/>
</linearGradient>
<linearGradient id="paint94_linear_75_2519" x1="304.8" y1="38.4824" x2="309.537" y2="42.4788" gradientUnits="userSpaceOnUse">
<stop stop-color="#8753F4"/>
<stop offset="1" stop-color="#5A25CA"/>
</linearGradient>
<linearGradient id="paint95_linear_75_2519" x1="304.906" y1="39.0615" x2="309.643" y2="43.0579" gradientUnits="userSpaceOnUse">
<stop stop-color="#8753F4"/>
<stop offset="1" stop-color="#5A25CA"/>
</linearGradient>
<linearGradient id="paint96_linear_75_2519" x1="305.035" y1="39.6377" x2="309.773" y2="43.634" gradientUnits="userSpaceOnUse">
<stop stop-color="#8753F4"/>
<stop offset="1" stop-color="#5A25CA"/>
</linearGradient>
<linearGradient id="paint97_linear_75_2519" x1="305.186" y1="40.2104" x2="309.924" y2="44.2068" gradientUnits="userSpaceOnUse">
<stop stop-color="#8753F4"/>
<stop offset="1" stop-color="#5A25CA"/>
</linearGradient>
<linearGradient id="paint98_linear_75_2519" x1="305.357" y1="40.7793" x2="310.094" y2="44.7756" gradientUnits="userSpaceOnUse">
<stop stop-color="#8753F4"/>
<stop offset="1" stop-color="#5A25CA"/>
</linearGradient>
<linearGradient id="paint99_linear_75_2519" x1="305.545" y1="41.3447" x2="310.282" y2="45.3411" gradientUnits="userSpaceOnUse">
<stop stop-color="#8753F4"/>
<stop offset="1" stop-color="#5A25CA"/>
</linearGradient>
</defs>
</svg>
